<svg xmlns="http://www.w3.org/2000/svg" xml:space="preserve" width="432.43" height="288.287" style="shape-rendering:geometricPrecision;text-rendering:geometricPrecision;image-rendering:optimizeQuality;fill-rule:evenodd;clip-rule:evenodd" viewBox="0 0 2574 1716"><defs><style>.fil3{fill:#fff}</style></defs><g id="Layer_x0020_1"><path d="M0 0h858v1716H0z" style="fill:#000"/><path d="M1716 0H858v1716h858z" style="fill:#bf0000"/><path d="M1716 0h858v1716h-858z" style="fill:#090"/><path d="m1461 1327-14-1c-1 0-3 0-5-1l-19-4h-1l-13-3c-12-2-14-2-26-2h-6c3-2 44-17 49-18l21-6c12-2 24-3 35 2 9 4 11 15 6 23s-17 9-27 9zm-379-19c0-17 20-18 32-18 4 0 8 1 12 1 9 2 23 6 31 9 3 1 6 2 10 4 2 1 3 1 5 2l10 4c1 1 3 1 5 2 1 1 9 3 10 4h-13c-12 0-37 7-52 9-13 2-38 5-46-7-2-3-3-5-3-9zm15-24 21-17 2-2 13-14c7-9 16-24 29-24s19 3 32 6c18 4 37 8 55 10 39 5 62 2 101-4 13-2 27-6 40-9 11-3 20-5 30 1 4 2 9 7 12 11l2 2 7 9 2 2 15 15 2 2 15 12c-2 0-4-1-5-1-17-2-35 2-51 8-2 1-3 1-5 2l-19 7c-6 3-13 5-19 7l-10 3c-3 1-7 2-10 3-13 4-31 8-45 9-6 0-12 1-19 1-3 0-4 0-6 1-3 0-4 0-6-1-7 0-10 0-19-1s-14-2-23-3l-16-4c-20-5-36-11-54-19l-14-6c-10-4-27-9-38-9h-13c-2 0-4 1-6 1zm459 28 2 2c10 8 30 12 42 12 11 0 17 0 29-2-1 5-19 14-25 16-5 2-10 3-16 4-23 4-36 2-58-1-17-2-21-3-38-3-11 0-21 2-30 4l-41 10c-10 2-18 4-29 6-7 1-10 2-18 2-20 0-24-24-4-32 5-2 12-3 19-2 8 1 9 1 18 3 6 1 11 2 17 4 18 4 49 9 67-2 2-1 3-2 5-4 8-8 10-25 3-35-3-4-6-7-10-10l-4-4c3 0 6-1 10-1 9 0 15 0 23 2 5 1 9 2 14 3 30 5 47 6 76-5l8-4c1-1 1-1 3-1l-4 8c-2 4-5 8-8 11-1 1-2 2-4 3-4 4-14 9-20 12-10 4-16 5-26 7zm-600-41c2 1 3 2 5 3s4 2 5 3c27 11 46 10 75 5 17-3 20-5 38-5 4 0 7 1 10 1-1 2-1 2-3 3l-6 5c-7 8-10 12-10 23 0 9 4 17 11 22 26 18 84-4 107-4 10 0 17 1 23 8 6 6 6 17-1 22-8 6-21 4-30 3-2 0-5-1-7-1-3 0-5-1-7-1l-14-3c-5-1-9-2-14-3-15-4-42-12-58-12-22 0-31 2-52 5-25 3-59 2-80-15-3-2-3-2-5-5l9 2c9 1 24 1 32 0s27-7 31-13c-5 0-16-3-20-5l-11-4c-1-1-1-1-2-1-13-8-19-13-25-26-1-2-1-3-2-5zm526-11h-1zm-390 0h1zm-57-4 1-1zm76 1h-8l6-8c8-12 21-10 21-5 0 6-10 13-19 13m354-14v-2c2-2 2-2 6-2 9 0 13 9 17 13 1 1 2 1 2 3-5 0-10 3-18-2-2-1-7-6-7-9zm-16-3c3 0 6 1 8 2 4 2 5 4 7 6l6 8c-6 0-15 3-23-5-5-5-5-11 2-11m-380 15c-3 0-4-1-7-1l8-9c2-3 8-6 12-6 2 0 4 1 5 2 0 4 0 4-2 7q-3 4.5-9 6c-1 0-5 1-6 1zm417-13c0-3 8-8 20 7l4 5c-4 0-11 3-18-3l-2-2c-2-1-4-5-4-8zm-396 13c-3 0-5-1-7-1l8-9c5-5 7-6 14-6 2 0 5 1 4 5-1 3-2 4-4 6-4 4-8 6-14 6zm-41-1h-5l7-9c10-11 21-5 11 4 0 0-2 1-2 2-3 2-7 4-11 4zm478-13c0-1 0-2 1-2 3-3 10 1 13 4l5 7c2 2 0 2-3 2-7 0-15-6-15-10zm-15-2c7 0 11 5 14 10l4 5c-5 0-5 1-12-1-9-4-14-14-5-14zm-481 13h-4l3-4c4-6 9-12 16-8 0 8-9 12-15 12m250-39c0-6 10-6 10 0v28h-10zm-151 27c2 0 1 0 2-1 1 1 1 1 2 1 0 2-1 3-3 4v-2zm308 0c1-1 1-1 2-1l2 2c-1 2-1 1-1 4-1-1-2-3-3-4zm43-3c1 2 1 2 2 3l-1 2c-1-1-3-2-5-2l4-2zm-20 0c0 2 0 1 1 2-1 2-1 1-1 3-2-1-1-1-4-2 1-1 2-3 4-3m-349 0c1 1 1 1 2 1 1 1 1 0 2 1-3 0-2 1-4 2 0-2 0-1-1-2 1-1 1-1 2-3zm-22 5c0-1 0-1-1-2l2-2 3 2c-3 1-3 1-5 2zm413-7c0 2 1 2 2 3-1 1-1 1-2 3-2-1-2-1-6-2l5-3zm-436 3c2-1 1-1 2-3l2 2 2 1h1c-4 1-4 2-6 2 0-2 0-1-1-3zm471-1c3-1 6-4 13-4 6 0 16 4 19 7-9 4-20 4-29 0-1 0-2-1-2-1-2-1-1-1-1-2m-22 0 4-2c0 2 1 2 3 3-1 1-1 1-1 2l-1-1-4-2zm-467 3-1-1 2-2c1-1 1-1 1-2l3 3c-5 1-3 2-5 2m-34 3c-4 0-6 0-10-1-2-1-3-1-5-2 2-3 16-9 26-6l6 3c-1 4-14 6-17 6m421-5c-1-1-3-4-4-5 3-2 5-4 8-5-3 7 1 7-4 10m-306-10c4 1 6 3 8 5-1 2-2 4-4 5-4-2 0-3-4-10m201 10-9 1v-13c1-5-1-10 5-10s4 8 4 13l-1 9zm-189-7c-2 0-3-1-4-2 3-1 7-2 8-6 4 1 3 2 3 3-2 0-3 1-4 2-3 2-3 1-3 3m282-9c1 5 6 6 9 6l-2 1c-1 1-1 1-2 1-2-3-5-4-8-6l3-3zm-181-7c5 0 4 4 4 6v17c-6 0-5-1-9-1v-13c-1-5 0-9 4-9zm92 15c1-7 0-8 4-8s-2 6-4 8m-104-6c0-2 1-1 3-1s2 5 2 8c-2-1-5-6-5-6zm88 16c-3 0-6 1-10 1l1-9v-10c0-4-1-7 2-8 3-2 5-1 7 1 0 6 0 12-1 17l-1 9zm-291-17c4 0 8 0 12 2 6 4 11 11 2 11-7 0-10-7-13-11zm500 14c-4 0-4 0-4-3 0-4 4-7 7-8 2-1 4-2 6-2h6c-4 6-8 14-15 14zm-45 0c0-5 1-7 6-10 6-4 12-3 18-3l-9 11c-4 4-9 6-14 2zm-419-13c17-4 29 13 20 15-7 2-12-5-16-10zm442 13c0-2-1-3 2-8 4-5 11-9 18-7-1 1-1 1-2 3-3 4-4 9-11 12-3 1-4 1-7 0m-245 5c-4 0-6-1-10-1l-1-16c0-5-3-12 5-11 6 1 4 6 5 8zm-216-19c5-1 10 1 14 3 2 1 6 6 6 10v2c-7 3-13-4-16-9l-3-6zm424 18c-5 0-3 0-6-2 0-3 1-6 3-8 1-2 3-3 5-5 5-3 9-3 16-3 0 2-8 13-11 16-1 1-4 2-7 2m-21 0c-14 0-1-18 14-18h6c-1 2-2 2-4 5-3 5-8 12-16 12zm-343-17c6-1 10-2 18 3 4 3 7 6 7 12-3 2-1 2-6 2-2 0-5-1-6-2-4-2-10-11-12-15zm-20 0c10 0 19 1 23 10 1 3 2 8-2 8-8 0-12-3-16-9l-5-8zm307 5c5-7 13-12 21-16 0 2 2 5 3 7s3 4 5 4c-1 1-2 1-3 3-6-3-17-1-23 1-1 0-2 1-3 1m-211 0c-2 0-8-3-15-3-10-1-10 4-14-2 4-2 7-6 8-10 6 0 17 10 21 16zm125 15c-2 1-7 1-10 1v-22c1-4-1-9 6-9 3 0 4 2 4 4l-1 21v5zm236-21c-4 0-4 1-8 1 0-1 2-2 3-2 2-1 12-1 14-1-5 4-4 1-9 1zm-272-8c9 0 7 8 7 22v9c-3 1-7 0-10 0l-1-20c0-2-1-2-1-4 0-1 0-3 1-3 0-1 2-2 3-2zm-247 7c5 0 14-1 17 3-12-3-5-1-12-1-2 0-1 0-4-2zm-58 10h-1c-1-2-2-2-2-5 0-4 2-7 4-10 1-1 9-9 9-5 0 6 0 9-2 14-1 1-1 2-3 3-1 1-3 2-4 2zm635-15v-6c7 4 12 8 12 17 0 2-1 2-2 4-3 0-3 0-5-2-4-2-5-9-5-13m-163 11c-8 0-11-6-3-10 7-4 15-3 22 0l3 2c-2 1-4 1-6 2-7 3-10 7-16 7zm-321-9c3-1 17-9 27 1 2 2 4 8-6 8-6 0-11-6-18-8-2-1-1 0-3-1m425 0 2-1c6-3 17-5 24-5 1 0 3 3 7 3v5c-3-2-24-1-30-1h-3zm-540 1v-5c5-1 4-3 7-3 6 0 23 3 26 7h-14c-4 0-17 0-19 1m516 1 2-2c-2-2-1-1-3-2 6 0 10-2 11-3l5 7h-8c-3 0-5 1-8 1zm-32-5c0-2 2-3 3-4 5-3 12-1 17 2 2 2 6 5 9 6-1 4-16 7-23 2-2-1-5-4-5-6zm-410 8c-4 0-8-1-11-2l-3-1c1-1 0-1 2-2 5-3 10-8 17-8 3 0 10 2 10 5 0 5-8 9-14 9zm-18-3c-3 0-5-1-11-1h-4c1-2 3-4 5-7 3 1 6 3 11 3l-1 1h-1l-2 1c1 1 0 1 1 1l1 1zm402-6c15-4 11-6 16-7 0 2 1 3 2 4s2 2 3 2c0 3 0 3 1 5-5 0-6 1-8 1-1 0-3-2-8-2-3 0-4-1-6-3m-365-1c3 0 5-4 5-6 3 0 5 6 16 7l-3 2c-2 1-1 1-3 2l-6 1c-4 1-1 1-6 0h-4c2-2 1-2 1-5zm518-1c18 0 37 10 59 10l-3 2c-15 10-28 11-46 5-2-1-4-1-6-2 1-3 2-3-1-8-1-3-3-4-5-7zm-654 10v5c-10 2-12 5-27 5-7 0-16-3-22-7-1-1-2-1-3-2l-3-2h8c18-1 39-10 52-10-2 2-6 7-6 10zm478-11v-8c2 1 2 1 4 1 0 3 0 3 1 5-2 0-4 1-6 2zm-296-7c0 3 0 5 1 7-2-1-4-1-7-2 1-2 1-2 2-5zm396 13-3-3-3-3c2-2 3-2 5-5 10 0 3 2 12 2 6 0 10-4 16-4 0 2 1 3 2 4-13 0-20 2-30 9zm-525-13c8 0 8 4 19 4 5 0 1-2 10-2 2 2 2 3 5 5l-5 7c-2-2-10-6-13-7-6-2-9-2-17-2 1-1 2-2 2-4zm413 15c-7 0-11-17-1-30 1-1 1-1 1-2 2 1 1 0 1 2 3 8 10 15 4 26-1 2-2 5-5 5zm-275-33c2 1 4 6 5 8 2 6 4 14 1 20-2 3-4 6-8 4-3-3-6-10-5-15 1-4 2-5 3-9 1-3 3-5 3-8zm352 19c0-2 0-2 1-3l2-1c10-5 20 5 26 6 0 1-17 11-27 2-1-1-2-2-2-3zm-441 7c-5 0-14-3-16-6l8-4c5-3 10-4 16-2 2 1 3 2 4 3v2c0 4-8 8-12 8zm194-19c0-2 0-1 2-2l1-1 1-1c5-4 10-7 17-7 6 0 8 2 12 4 2-1 2-2 5-3 11-4 22 1 28 9 9-5 26-6 30 4 2 5 1 11-2 16l-5 9c-1 0-3-3-7 0 0-6-3-8-9-8-2 0-2 1-4 2 0-2 0-3-2-4-1-1-3-1-4-2-5 0-6 3-8 4 0-4-8-10-15-1-1-9-16-8-17 0-2-2-4-5-7-5-4 0-8 2-8 6-1-1-3-4-8-4-3 0-6 2-6 6-3-2-1-2-6-2-2 0-4 1-5 2s-2 3-2 6c-3-2-4-1-7 0 0-1-1-1-1-1l-3-4c-4-6-6-16-2-21 2-2 3-3 5-4 4-2 8-1 12-1 5 0 8 3 11 3zm244 12h-6c1-1 2-2 2-5 2 0 2 1 4 1 0 3-1 1 0 4m-423-4c2 0 3-1 4-1 0 2 1 4 2 5h-6c1-1 1-3 0-4m382 9c-4 0-7 0-10-1-7-3-5-8 1-11 3-2 5-2 9-3 7-1 14 4 18 4 0 2-2 3-3 4l-1 1c-3 3-7 6-13 6zm115-1c-2 0-8-4-8-9 0-2 1-5 4-5s5 2 7 3c0 0-2 11-3 11m-207 24c1-4 22-19 25-21 1-1 2-1 3-2s2-1 3-2c3-2 13-9 16-10v9c-6 1-18 10-22 15l-2 2c-5 6-1 5-15 8-2 1-6 2-8 2zm-267-34c7 0 17-10 29 1 7 5-2 10-8 10h-4c-8 0-14-6-17-11m-101 0 1-1c8-7 13 3 7 9-2 1-3 2-5 3 0-2-2-9-2-11zm163-1 13 8c11 7 23 16 33 25 1 1 2 2 2 3-3-2-18-3-21-7-1-1-1-2-2-3-5-5-5-6-12-11-2-1-4-3-6-4l-7-3c0-5-1-6-1-9zm403 4c-3 0-6 1-8 1-11 3-8 1-13 1 0-2 1-2 3-3 5-4 12-7 19-4v4zm-80 8c-6 0-6-10-3-16 2-5 6-9 11-12 0 8 4 14-1 23-1 2-4 5-6 5zm-472-12c5-2 10-1 15 1 2 1 6 3 6 6-8 2-6 1-14-1-11-3-5 0-7-5zm71-2c0-5 1-8 1-14 18 12 13 28 8 28-2 0-3-1-4-2-3-3-6-8-6-12zm426 0c1-2 3-2 3-5 3 1 0 1 3 1v3h-7zm-449-4c2 0 0 0 3-1 0 1 1 2 1 3l2 2h-7v-3zm-16 9c-3 0-5 0-8-1l-6-3v-1c5-1 8-8 18-8 7 0 13 5 4 10-2 1-5 2-8 2zm-59-8c0-1 5-6 9 8 3 9 4 22-1 30-3 0-3 0-5-1 2-10 2-4 2-17 0-5-2-11-4-16-1-1-2-3-2-4zm599 21c0 11 2 14 2 15 0 2-3 2-5 2-4-8-3-24 0-32 1-3 4-10 8-6 1 1 0 1 0 2-4 6-6 12-6 20zm-65-22c1-1 1-2 3-3 7-3 14 0 19 4 2 1 2 2 4 2v1c-2 0-1 0-3 1-7 3-16 4-22-2-2-2-1-2-2-4zm-69 3c1-2 1-4 1-7 3 1 1 1 5 1 0 3 0 2 1 4-4 0-5 1-7 2m-248-2 1 1zm-83-1v-2c4 0 2 0 5-1 1 3 0 4 2 7-3-1-3-2-8-2 1-2 1-1 1-2m476 24c0 5 1 9 3 13 2 5 2 8-3 8-11-21 0-47 7-47 5 0 0 7-1 8-1 2-2 3-3 6-2 4-3 8-3 13zm-624-24c0-2 5-6 10 9 4 10 4 27-2 36h-3c-3-3-1-5 1-11 6-20-6-29-6-34m468 10c-6 0-7-10-7-15 0-6 4-16 8-18 0 2 1 3 1 5 4 9 10 17 2 26-1 1-2 2-4 2m-305 0c-4 0-7-7-7-13 0-4 2-7 3-10s3-6 3-10h1c0 1 11 15 6 27-1 2-3 6-6 6m-68-30c2 0 6 4 7 5l2 2c1 1 2 3 3 5 2 5 2 15-3 15-5 1-11-9-10-16 0-3 1-8 1-12zm468 14v-2c4-3 7-4 13-2s8 6 12 6l-3 2c-6 3-12 3-17 0-2-1-4-3-4-5zm-520 3v-1c3-1 13-11 23-6 8 5-6 14-19 8-1-1-2-1-3-1zm686-4-8 7c-9 7-21 11-33 13-7 1-22 2-29 1-5-1-10 0-15 0-5-1-10 0-15-1 4-8 2-10 16-14l12-3c15-2 29-1 43-1 4 0 17-1 21-2 2-1 4-1 6-2zm-826 0c2 0 3 1 6 2 10 2 19 1 28 1 8 0 22 0 29 1 12 2 12 1 25 5 1 0 4 2 5 2 2 1 5 7 6 10-5 1-25 1-29 2-3 0-18-1-22-1-5 0-15-2-20-4-9-3-18-8-25-14l-4-4zm602 11c-5 0-15-1-17-5-4-7 14-12 24-6-2 3-6 5-7 11m-386-11c12-6 32 1 22 8-4 3-10 3-15 3-2-7-5-9-7-11m440 1c-2 0-4 0-6 1 1-2 3-3 3-6 2 1 1 1 4 1-1 2-1 1-1 4m-482 0h-6c0-3 0-2-1-4 3 0 3 0 4-1 0 3 2 4 3 6zm0-8c0-8 1-8 1-15 5 3 11 10 11 16v4c0 5-3 8-7 5-3-2-5-7-5-10m462 5c0-10 4-14 11-19 0 8 4 16-3 23-1 1-2 2-4 2-3 1-5-3-5-6zm-407-9v-2h5c0 4 0 5 1 8-2 0-4-2-7-2 0-1 1-1 1-3zm182 6-1-1-1-1c-7-4-18-2-24 1-3 1-5 2-6 5-1 1-1 1-1 2-2 0-2 0-4-1-11-4-25-3-30 7-5 9 1 21 6 28 1 2 2 3 3 4l6 8c3 3 2 2 3 5-3 0-3-1-6-5-1-1-2-2-2-3l-7-9c-2-2-3-4-4-6-7-11-11-20-11-34 0-12 7-20 15-24 15-7 20-2 27-2 4-6 13-10 20-10 8 0 11 0 19 5l1-1c10-7 30-5 38 7 5-3 17-2 24 0 10 4 19 12 19 24 0 15-3 23-11 36l-4 6c-2 2-11 16-13 16 0 0-4 1 0-4 7-8 17-22 17-33 0-6-2-10-6-13-1-1-4-3-6-3-8-3-17-1-24 2-5-10-20-13-31-9-2 1-3 1-4 2zm87-6v1zm-261-1c0-7 4-11 4-18 2 0 3 2 4 3l3 4c3 6 5 12 1 18-5 10-12-1-12-7m-99 7c-2 0-4 0-6-1s-3-1-5-2c0-2 1-1 3-2 5-3 5-5 13-5 3 0 4 1 6 2 0 2 0 3-2 5s-6 4-9 4zm536-7c0-4 9-4 12-2 1 0 2 1 3 2 2 1 4 3 6 4-2 2-8 4-11 4-4 0-11-3-11-7zm-102 0c0-6 5-16 10-18 0 6 4 10 4 19 0 5-5 15-10 9-1-1-1-2-2-3-1-2-2-5-2-7m99 4h-8c1-2 3-3 3-6 1 1 2 2 5 2 0 2-1 2 0 4m-519-4c3 0 3-1 5-2 0 2 2 4 3 6h-8c1-1 1-3 0-4m443 4c-3 0-5 1-7 2 1-6 1-2 1-9 2 1 2 1 5 1-1 2 0 3 0 5zm38 8c0 8-7 16-11 14s-4-13-1-16l4-5 2-2c2-1 3-3 6-4-1 2 1 10 1 14zm60-15c2 0 3 0 5-1s3-1 4-3l26 14c4 2 15 6 19 6-4 0-10 2-13 4-1-8-11-10-15 0-2 0 0 0-2-2s-6-2-8 0l-1 1c-2 2-3 3-4 6-2-1-4-3-7-3-1 0-4 1-5 2s-1 0-1 1c-4 0 0-2-10-2l2-1c1 0 1-1 2-1 4-2 12-3 15-3-1-2-4-3-6-3-2-1-1 0-3-1 8 0 7-6 19-6-3 0-12-3-15-5-2-1-1-1-1-2zm-579 7c11 0 11 6 19 6-2 2-3 0-8 4l-1 1c1 0 4 0 6 1 4 0 11 2 14 5-5 0-5 0-9 2-6-4-7-4-13 0-2-4-7-11-13-7-1 1-1 1-2 3-2-1-4-6-8-7-2 0-5 1-6 2-2 1-2 3-2 5-2 0-3-2-6-3-2-1-5-2-7-2 6 0 19-6 24-8l20-12c1 2 2 2 4 3 3 2 4 1 5 2-3 4-13 7-17 7zm151-8 2 2c10 8 21 9 31 15 3 2 6 5 9 8l25 29c1 2 10 10 9 12-1 4-8-6-15-11l-21-17c-5-4-12-8-18-11-7-4-4-2-7-6-1-2-5-8-7-9-1 3-2 4-2 7-1-1-1-4-3-8l-3-8zm288 17c-1-1-1-1-2-3 0-1-1-3-1-4-2 2-5 6-7 8-4 5-1 3-8 7-2 1-3 2-5 3s-3 2-5 3c-1 1-2 1-2 1-1 0 0 0-1 1-10 7-13 9-23 17-2 2-15 15-16 15-4 0 3-7 4-8l8-10 2-2 16-19c1-2 3-3 4-4l5-4c11-8 21-8 32-16 1-1 1-1 3-2-2 3-5 12-5 17zm-394-19c0-8 1-7 1-14 2 1 6 4 7 6 6 9 3 22-3 18-3-2-5-6-5-10m448 12c-17 0-7-13 1-13 10 0 11 2 16 2-4 5-10 11-18 11zm-408-11c5 0 6-2 16-2 9 0 19 13 1 13-7 0-15-6-18-11zm457 10-1-1c-5-6-2-17 6-23 1-1 1-1 2-1 0 8 4 14-2 21q-1.5 3-6 3zm-28-9c0-1 1-3 1-3l9-7c0 4 1 4 2 6l-4 6-1 1v-6c-2 0-2 1-4 2-1 1-2 1-3 2zm-433 0c-1-1-2-1-3-2l-4-2v7c-2-1 0-1-2-4-1-1-2-3-3-4 1-2 2-2 2-5 2 1 5 5 9 6 0 1 1 2 1 4m493-2h-4c-3-4-1-8 3-10 2 1 8 5 10 6-1 2-6 3-8 3zm-552-10c4 2 4 4 4 8-2 2-1 1-6 1-4 0-6-2-8-3 1-2 0-1 2-2 1-1 2-1 3-2 2-1 3-2 5-3zm536 13c-4 0-6-9 0-17 1-1 1-1 1-2l3-3c0 4 2 5 2 11 0 3-4 10-7 10zm-71-5c1-3 1-3 1-7 2 1 2 1 6 1 0 2 1 2 1 3-4 0-6 2-9 2zm-385-6c3 0 3-1 6-1 0 5 1 5 2 8-3-1-5-3-9-3 1-1 1-2 1-3zm-71 1c0-4 2-7 2-11 13 7 8 30 0 17-1-2-2-4-2-6m86 8c-7 0-8-11-4-20 1-1 1-2 2-4s1-2 1-5c1 0 1 0 3 2 9 12 2 26-2 26zm356-13c0-3 1-6 2-9 1-1 1-2 2-3 1-2 2-2 2-3h1c0 5 6 9 6 19 0 4-2 10-6 10-5 0-7-8-7-13zm25 3c0-5 7-10 18-5 2 1 5 2 7 2-2 2-2 3-5 5-2 1-5 3-7 3-4 1-14 0-14-5zm-425-3c6 0 14-7 22-2 8 6-1 11-10 9-4-1-7-3-9-5-1-1-2-2-2-3zm-44-2c0 2-1 3-1 5-1-1-2-2-3-2 1-1 2-2 4-3m538 0c2 0 3 2 4 3-1 0-2 1-3 2 0-2-1-3-1-5m-30 10v-6c-2 1-7 5-8 6-3-5-3-11 4-11h12c-1 1-2 1-5 5-1 1-1 2-2 3l-2 4zm-487-11h11c8 0 8 6 5 11-2-1-6-5-8-6v5-1c-2-5-3-6-7-9zm503 4c-1-1-1 0-1-4 0-2 3-3 4-6 1 1 2 1 3 1 0 2 0 1-1 2-2 2-4 4-4 6zm-517-8c1 0 2-1 3-1 0 2 0 1 1 2 3 4 3 1 3 7-2-1-1-3-5-6-3-2-1-1-2-2m457 9c-4 0-6-7-6-11 0-5 4-12 7-14 0 3 1 5 3 7 3 5 4 7 1 14-1 2-2 4-4 4zm-391-26c9 6 8 26 1 26-3 0-7-8-6-12 1-6 5-8 5-14m-59 14c1-1 3-2 6-4 6-4 6-5 9-1l3 3c2 2 3 4 5 7h-3c-5 0-6 1-11 0-4 0-6-1-8-4zm491 4h-3c1-4 8-10 10-12 2 1 4 3 6 4s5 3 7 3c-4 6-14 4-19 4zm148-13-1 1zm-769 0h1zm202-1 1 1zm-58 0 7-5c4 7 5 10 12 15 1 1 4 3 5 4-2 0-3 1-5 2s-3 1-5 2c-1-2-2-3-3-4l-7-9c-1-2-3-2-4-4zm467 17c-4 0-7-3-10-3 1-2 14-10 16-19 1 1 2 1 4 2 1 1 3 2 4 2l-5 6-2 2c-1 1-2 3-3 4s-3 4-3 5zm-394-22 4 5c5 5 9 9 15 12 15 8 36 9 50 22 5 5 13 15 13 23l-8-9c-1-1-1-1-1-2l-2-2c-10-10-15-13-30-18l-18-6c3 5 21 12 26 15 4 2 6 3 10 6 1 1 2 1 3 2s2 2 3 2l12 14c5 7 10 14 15 22l14 17c1 1 1 1 1 3-3 0-3-1-4-2l-22-25c-1-1-2-2-3-4l-9-11-3-3-2-2-1-1c-2-3-5-4-8-6-11-7-14-3-35-18-3-3-6-5-8-8-5-6-6-9-8-15-1-2-3-8-3-11zm541 6c-8 0-11-3-17-3 6-8 13 2 24-3 0 4-5 6-7 6m-754-6c9 4 17-4 23 1l1 1c-3 0-5 1-8 1-7 1-13 4-16-4zm588 16c-5 0 1-10 2-11 2-4 8-10 12-10 2 0 7 3 7 4 0 6-12 17-21 17m-123 47c0-8 7-18 12-24 2-2 3-3 5-4 8-6 16-8 25-11 7-2 13-4 20-7 4-2 10-7 13-10l5-6c1-1 0-1 1-1-3 6-1 14-12 27-4 5-10 9-15 12-14 9-20 8-28 13-10 7-16 15-23 24-1 1-2 3-3 4s-2 2-3 4l-20 23c-1 1 0 1-3 1 0-3 0-2 4-6 5-5 14-18 18-24l6-9c1-1 1-2 2-3 10-13 15-17 28-24 5-2 10-4 14-7 2-1 12-6 12-9-3 2-14 5-18 6-8 3-14 5-21 9-1 1-3 2-4 3l-17 19zm-292-47c-4 0-6-1-9-3-1-1-2-1-3-2l-8-9c-2-4-2-5 2-7 3-1 3-2 8 0 5 3 11 11 12 16 0 1 0 3-2 3zm563-19c1-2 0-3 0-6h5v3c-2 1-3 1-6 2zm-8-20c0 2 2 6 3 8 3 10 2 9 1 15-2-1-3-1-5-2s-4-2-5-2c0-4 1-8 2-11l3-6c1-1 1-1 2-1zm-700 22c-1-5-3-5 1-14 1-2 1-3 2-4s1-3 1-4l2 3c3 4 4 9 4 15-2 0-3 1-5 2s-4 1-6 2zm-10-6v-2h5v6c-2 0-4-1-6-2v-1zm144-2c13-6 19 3 19 6 0 2-2 8-5 10-3-6-5-8-10-12zm420 16c-2-2-5-8-4-11 1-2 2-4 3-5 6-5 12-1 15 0l-8 7c-1 1-2 3-3 4s-2 4-3 5m-16 3h-1c0-2-1-5-2-8l-2 2c1-4 6-11 12-14 2-1 4-2 7-2l-4 5c-2 3-10 8-10 17m-369-7h-1l-2 7c0 1 0 0-1 1-2-7-3-10-8-14-2-1-2-3-4-5-1-1-1-1-2-3 8 0 17 8 18 14m62 1 13 21c-5 0-13-7-17-11s-9-12-11-18c-2-7-2-9-2-17l12 10c1 1 3 2 4 3s3 2 4 3 3 2 4 3c11 9 18 21 23 35 1 4 3 7 4 11l-12-13s-1-1-1-2c-4-7-5-10-11-17-2-2-8-8-10-8m495-8c-3 0-6 0-8-2-4-5 5-10 9-10 10 0 9 2 15 2-3 5-10 10-16 10m-765-10c6 0 7-2 15-2 4 0 10 4 10 8 0 5-16 8-26-6zm511 17c-2 1-8 6-10 8s-3 3-4 5c-1 1-1 2-2 3-4 6-4 11-9 15l-9 10c0-7 10-27 16-34 12-15 24-19 33-28l2-2c0 12-4 22-9 29-4 6-16 16-22 16zm56 3c0-10 0-14 9-21 2-1 3-2 5-3l37-18c1 0 2-1 3-1 14-7 22-10 38-2l44 24c11 5 19 10 30 15 14 6 38 14 53 5 2-1 2-2 4-3-2 8-5 12-10 18l-5 5c-7 7-11 11-19 17-16 11-24 11-43 4l-29-15-29-18c-1-1-1-1-2-1-1-1-3-2-4-3-6-4-21-13-27-17-1-1-3-1-4-2-4-2-15-7-19-7-10 0-15 1-23 7-2 2-4 4-5 7-1 1-1 3-2 4s-1 1-1 2l-1 2zm-520 45c-6 0-11-2-16-5l-6-4-21-19-6-7c-2-4-6-9-6-14 3 3 4 3 8 5 15 6 36-2 47-7l42-21c1-1 2-1 4-2 8-5 22-13 29-16 20-10 28-4 43 4 1 1 2 1 3 1l10 5c2 1 3 2 5 3l13 6c1 0 2 1 3 1 9 4 16 11 16 22v3c-1-1-3-7-4-8-2-3-3-5-6-7-6-6-13-7-22-7-8 0-19 7-27 11-3 2-5 3-8 5s-5 3-8 5c-1 1-2 2-4 2l-12 8c-3 2-5 3-8 5-5 3-10 7-15 10-15 9-36 22-54 22zm681-59c-5-1-10-4-14-6 3-4 8-4 12-4h5c-1 3-2 6-2 10zm-677-10h10c3 1 5 1 7 4-5 3-8 5-14 6 0-3-1-8-2-10zm708 0v-5c3 1 2 1 5 0v3c-2 1-4 1-6 2zm-48 2-2-1c1-4 1-1 1-7h5c0 1 0 1 1 2l2 1c-2 0-3 1-4 1-2 1-1 2-3 3zm-644-8h5c0 4 0 5 1 7-1 0-1 1-3 1-1-2-3-4-6-4 1-2 2-1 2-3zm-49 0c2 1 3 0 5 0 0 2 0 4 1 5l-6-2zm758 26c2-2 4-1 12-9l2-2 2-2 2-2c-8 2-15 9-19 12v-1c2-6 2-1 6-7 1-2 2-3 3-4l2-2c5-6 11-7 19-7 3 0 5 1 7 1-1 1-6 3-9 6h-1l-10 8c-4 4-12 9-18 10zm-769 0c-8 0-21-13-27-17l-11-7c2 0 4-1 7-1 20 0 19 9 27 15 0 0 2 1 2 2 4 2 1 0 3 4-2-1-11-9-19-11l2 2 5 4c8 8 10 8 12 9zm744-16c-8 0-8-20 0-26 0 4 4 8 5 14 0 3 0 4-1 7-1 2-3 5-4 5m-720 0c-4 0-8-9-4-18 1-1 1-2 1-3 1-1 1-2 1-4 4 1 6 9 7 13s-2 13-6 13zm765-12-1 1zm-100 0c0-19 11-5 11 4v3c-2 0-8-5-11-6zm-620 7c-3-7 5-17 7-17 4 0 4 7 4 10l-8 5c-1 1-1 1-3 1zm-90-7h1zm4-3c5 0 10-2 14-2 3 0 7 2 8 4 4 6-4 7-7 7-6 0-10-3-14-7-2-2-1-2-1-2m788 10c-13 0-10-9 1-11 5-1 9 2 15 2l-3 3c-1 1-1 1-2 1-1 1-1 1-2 1-2 2-6 3-9 3zm-51-3c-3 0-5 0-8-1 0-5 6-9 10-9h11c-1 5-7 10-13 10m-682-10c8 0 12-2 17 2l2 2c2 2 2 3 2 5-5 3-11 2-16-1-3-2-3-4-5-7zm647-2c4 0 2 2 2 7-2 0-3-1-4-2s-3-2-4-2c1-1 5-2 7-2zm-601 7c0-4-1-3 0-7h5c2 0 3 0 4 2-2 1-6 4-9 5m-76-8c0-4 2-8 3-11 1-1 1-2 1-4 2 1 3 3 4 5 2 5 3 10 0 15-2 3-1 2-4 4-2-1-3-1-4-3-1-1-2-4-2-6zm759 2v-5c1 1 1 0 3 0h1v4c-2 0-3 1-5 1zm-14-4c0-5 3-12 6-14 0 4 11 18 0 24-2-1-3-1-4-4-1-2-2-4-2-7zm-752-1c1 1 1 0 3 0h1v5c-1-1-3-1-5-1 1-1 0-2 0-4zm700 2c0-1 9-5 9-5 1 0 3 6 3 7 0 6-4 10-9 4-1-1-3-5-3-6m-637 9c-4 0-4-8-3-11 1-2 1-1 1-3 2 0 8 3 10 4 0 4-4 10-8 10m721-7c-16 0-10-10 1-10 5 0 9 2 14 2-1 2-4 4-6 5s-7 3-9 3m-813-8c6 0 15-4 21 0 8 5 1 8-3 8-5 0-4 0-8-1s-8-3-10-7m763 4v3c-4 0-5-1-8-1 1-1 2-1 3-2 3-3 5-5 6-9 2 3-1 3-1 10zm-700-10h1c0 3 4 7 6 9 1 1 2 2 3 2-3 0-4 1-8 1 0-4 0-5-1-9-1-3-1-1-1-4zm741 2v-6c1 1 2 0 4 0 0 2 0 2 1 4-2 0-3 1-5 1zm-109-1c0-2 1-2 1-4h1c0 1 0 1 1 2-1 1-2 2-3 2m-565-4c0 2 1 3 1 4-1 0-2-1-3-1zm-79-4c2 1 4 4 6 6 3 5 5 7 3 13-2 0-2-1-3-4-4-6-6-7-6-15m-22 13c-3 0-5-5-5-9 0-6 4-10 5-15 4 3 8 12 4 20 0 1-1 2-2 2zm761-10c0-4 3-11 6-13 0 4 8 12 4 20s-9-1-9-7zm-769 6c-2 0-3-1-5-1 1-2 0-3 1-3 1-1 2 0 4-1-1 3 0 2 0 6zm744 10c-5-3 2-14 5-16 2-2 2-3 3-3 0 4 1 5-3 11-2 3-5 7-6 9zm53-13c-3 0-6-1-8-3 2-9 14-5 17-4 2 0 2 0 3 1-1 2-3 3-5 5-2 1-5 3-7 3zm-826-7c3-1 9-2 12-2 10 1 12 9 2 9-5 0-11-3-13-7zm754 17c-2 0-3 0-4-1-2-2-1-4 0-7 1-1 1-2 2-3 4-5 11-10 17-11 0 9-9 21-15 21zm-686-21c6 1 20 9 20 18 0 5-7 7-15-4-2-3-5-9-5-13zm646 23c1-1 3-3 5-4l8-5c1-1 2-1 3-1 1-1 1-1 3-2 1 0 1 0 2-1l1-1c-5 0-18 6-23 10l-7 5c-2-1-4-2-6-4 3-5 18-11 24-13 8-3 20-4 29-8 0 6-10 14-14 17-3 2-7 3-11 5l-13 3zm-630-24c8 4 23 6 35 11l13 6c1 1 2 1 3 2s1 1 2 3l-6 3c-1-1-2-1-3-2s-2-1-3-2c-6-4-17-10-23-10 1 1 14 8 16 10l5 4c-2 0-4-1-7-1-6-1-12-3-17-6-6-4-6-5-10-9-2-2-4-5-4-8zm701 13c-3-7-1-17 6-21 0 3 4 7-1 15-1 2-3 5-5 6m-656-3c-3-1-7-3-10-4 0-6 2-8 6-12l5-5 4-5c0 5 1 3 1 13 0 5-3 10-6 12zm592-10c3 0 3 0 5-1 0 4 2 2 2 4-3 0-3 1-6 1 0-2-1-3-1-5zm-605 5c-3 0-4-1-7-1v-1c2 0 2-1 2-3h5c-1 2-1 2-1 5zm587-8 1-7c0-2 1-3 1-5l9 10c3 4 5 5 5 12-1 0-4 1-5 2-2 1-3 1-5 2-4-2-6-9-6-13zm-655-5c1 2 7 7 6 14 0 3-1 4-1 6-1 0-3-3-4-4s-1-2-1-2c-3-5-3-13 0-15zm-23 15c-5 0-5-8-3-14l3-6c2 1 2 2 3 4 4 8-1 16-3 16m788-20c0 1 1 2 1 2 1 3 2 4 3 8 1 6-4 14-8 6-1-1-1-4-1-6 0-4 2-9 5-10m-57 16c1-6 2-9 7-9 0 1-1 5-2 6zm-673 0c-4-1-7-4-7-9 5 0 6 3 7 9m714-3c0-2-1-6-2-8-1-3-2-1 0-6 2 1 3 1 5 2 2 0 4 1 6 1-1 1-3 2-5 5-3 3-3 4-4 6m-763-11c2 0 4-1 6-1s3-1 5-2c0 1 1 2 2 3 0 3-3 1-3 11l-2-3c-1-1-1-2-2-3l-3-3zm836-2v1zm-42 13c-3 0-3-1-5-2 0-5 1-7 6-11 5-3 7-4 14-4 0 7-9 17-15 17m-89 1c-15 0-5-11 3-14 6-2 9-1 14-1h5c-2 5-5 7-8 11-3 2-8 6-13 6zm-659-16h10c4 0 6 0 9 1 5 2 10 6 10 12-9 6-22-2-28-11-1-1-1-2-2-3zm693 27c0-4-1-8 1-10l3-3 8-10c2-2 4-6 6-6 0 1 1 2 1 3l-5 7c-2 2-3 4-5 7-2 2-3 4-5 6l-5 7zm-724-30c2 1 9 10 11 12l4 5 2 2c2 2 3 6 3 9v1l-3-3c-1-1-2-2-2-3l-15-20c1-1 1-2 1-3zm-52 2c5 0 8 0 12 3 1 1 2 1 3 2 2 1 4 3 5 5 2 4 0 5-1 7-6 0-8-1-13-6-3-3-5-6-5-11zm112 5c-3-2 0-1-6-4l1-1 2-3c3 0 0 1 4 0v8zm623-8h4c0 1 0 1 1 2l2 2c-3 1-4 3-7 4 0-1 1-4 0-8m35 19c2-7 2-6 8-12 1-2 3-3 5-5 1-1 0-1 1-1 0-1 1-1 1-1 1-1 2-2 2-3l2 2 1 1 1 1c0 1-3 3-4 6l-10 11c-2 2-2 1-7 4zm-692 0-5-2-2-1-12-13c-1-1-2-1-2-3 2 0 3-1 4-3 1 1 2 1 2 2l5 5c2 2 8 9 9 11 1 1 1 3 1 4m42-3c-5 0-5-9-2-15s7-9 12-14c1-1 0-1 1-1 0 5 1 2 1 11 0 8-7 18-12 18zm596-19c0-4 0-7 1-10l9 9c11 11 6 28-5 17-3-3-6-9-6-16zm129 21c0-2 2-3 2-4 4-7 9-13 17-16 4-1 7-1 12-1-1 3-7 11-10 14l-5 5c-4 4-10 6-15 6 4-3 4-1 12-10l2-2c2-2 3-3 4-5-11 3-16 10-21 13zm-873-21c13 0 21 3 27 13l4 6 2 2c-2 0-8-6-10-8-4-3-7-4-12-6l11 11 7 5 1 1c-4 0-8-1-11-3-2-1-3-2-4-3l-5-5-2-2c-1-1-1-1-1-2l-2-2-6-9zm838 10c-19 0-10-19 11-13 2 1 5 2 8 2 0 2-2 3-3 4-4 4-10 7-16 7m-789-11c6 0 8-3 17-3 7 0 18 7 10 12-6 4-14 2-19-2-2-1-3-2-4-3-2-1-3-2-3-4zm804 19c0-2-2-4-3-8 4-2 6-3 9-6l6-6c1-1 1-1 1-2h-8l8-4 10 2-4 5-1 1-6 6c-1 1-6 3-9 8-1 2-1 3-2 4zm-823-24c1 0 4-1 5-1 6-1 5-2 11 2l2 1h-8c1 2 2 3 3 4 1 2 2 3 4 4 4 3 5 4 9 6 0 2-1 4-2 6s1 0-1 2c-1-2-3-6-5-7l-1-1c-5-4-2 0-11-9-1-1-1-2-3-3l-3-3zm786-5c0-6 1-10 4-15l3-3c1 6 10 15 6 25-5 11-12 1-12-8zm-37 17c-14 0-5-16 12-16h10c-1 2-3 4-4 6-3 3-7 7-11 8-2 1-6 2-8 2zm-674-16c2 0 3 1 5 0 5 0 11-1 18 2 9 6 10 13 1 13-10 0-19-8-23-16zm-21 11c-6 0-7-8-7-13s6-14 7-17c5 4 10 19 3 28 0 1-2 2-3 2m-10-8c-2-1-2-1-6-1 1-2 1-2 1-4h4c-1 6 0 2 0 6zm759-6h5c0 3 0 2 1 4-3 0-3 1-6 1 0-2 1-3 0-6zm-692 12c-2 0-3 0-4-2-3-7 1-12 5-17l9-8c2 7 3 15-2 22-2 2-5 6-8 6zm632-16c5 1 2 0 6 0 0 2 0 1 1 3l1 1c-1 0 0-1-2 0l-5 4c0-2 0-2-1-4l-1-4zm-18-2c0-5 1-6 1-10h1c0 2 3 4 4 5l2 2c6 6 10 13 5 21-5 0-7-1-11-6q-3-4.5-3-12zm-622 10c-3-2-3-2-7-4 1-2 2-1 2-3 4 0 2 1 7 0-1 1-2 6-2 8zm45-11c2 1 7 9 9 11 2 3 5 10 6 14 2 9 1 18-1 27-1 3-1 6-4 6-1-8 0-2 0-9v-9c0-2-1-10-2-12s-1-2-1-4c-2 1 0 3-1 9-4 23 0 19 0 27l-7 3c-1-1-1-5-2-7-4-18 1-26 4-39 2-8 0-12 0-17zm-142 22c-2 0-3 0-5-1-10 0 0 2-13-4-7-3-13-3-20-3 0-1 0-1-1-2l-3-7c-1-3-2-8-1-12 1-2 1-3 3-3 5 0 16 9 19 12l7 6c3 3 11 9 13 12zm3-21c6-1 12-6 21-2 7 3 9 12-5 12-4 0-8-2-10-3l-5-5c-2-2-1-2-1-2m813 10c-8 0-13-4-9-9 8-9 21-2 26-1-3 4-10 10-17 10m20 11c2-3 5-4 6-6l12-11 2-2c7-5 8-6 15-10 3-2 7-3 8 1 2 6-1 15-4 20-4-1-7-1-12 0 0 0-3 0-4 1l-9 4c-6 4 0 2-8 2-3 0-3 1-6 1m-143-15c0 6 0 10 2 16 3 9 5 18 3 27-1 4-2 10-3 13-1-1-6-2-7-3 3-13 3-11 1-25-1-4-1-6-1-11-7 4-2 27-4 34-4 0-4-2-5-9-2-9-2-11-1-19 0-5 3-11 5-15l2-4c1-1 1-1 1-2 1-1 1-1 1-2l6-7c-1 2-1 5-1 8zm101-17c0-7 3-15 7-18 0 6 9 13 6 23-1 3-4 8-8 6-2-1-5-7-5-11m-758 12c-2 0-3-2-4-3-6-11 4-21 4-26 2 1 4 4 5 6 3 5 3 12 1 18-1 2-4 6-5 6zm-10-6c-2-1-5-2-7-2l1-5c3 0 3 0 6-1 0 2-1 2 0 4zm785-8c2 1 3 1 6 1 0 3 0 3 1 5-2 0-6 1-8 2 0-3 1-5 0-8zm-59 15c-3 0-4-1-6-2 0-3 0-5 4-8s9-5 15-5h10c-1 3-6 8-8 10-1 1-4 3-6 4s-6 2-8 2zm-689-16h6c6 0 13 0 19 6 10 10-5 13-16 4-4-3-6-7-8-11zm795 73 15-30c1-2 1-3 2-5 5-11 8-17 10-29 1-5 0-7-3-9 2 0 4-1 6-2 3 0 5 0 6 1 7 5-1 24-4 31-1 1-1 2-1 3-3 7-14 24-19 30-3 3-7 8-10 11zm-880 0c-2 0-2-2-4-4-14-14-29-39-33-57-1-5-2-10 2-13l1-1c4-2 8 0 12 1l-3 3c-3 8 7 32 11 40 1 2 1 3 2 4l13 26zm854-66h-4c-6 0-12-6-3-10 10-6 16 1 23 1-1 2-4 5-6 6s-6 3-9 3zm-735 5h-3c-2-4-2-4-2-9 0-7 6-11 10-14 2-1 3-3 4-4 2 5 2 16-2 20-2 2-2 3-5 5-1 1-1 1-3 1zm-107-15c5 0 17-8 25 1 6 6-2 9-6 9-8 0-10-1-17-6-2-1-2-2-3-3zm740-3c0-4 1-6 1-9h1c0 1 1 2 2 3s2 1 3 2c2 2 4 3 5 5 3 5 4 11 1 16-5 0-8-1-10-6q-3-4.5-3-12zm17 2c3 0 4-1 6-1 0 3 1 3 1 5-3 1-4 2-6 3 0-2-1-5-2-7zm-657 7c-2-1-3-3-6-3 1-2 1-2 1-5 1 0 1 1 3 1h3c-1 1-2 5-2 7zm800-9c-7 0-20 7-26 11-2 1-3 3-5 4l-7 6c-1 1-1 1-3 2-8 8-4 3-14 3l13-13c-2 0-3 1-5 1l2-2c3-2 8-6 10-9l2-2c1-1 1-1 1-3h-5l1-1 3-2c9-6 2-7 13-5 2 1 17 5 19 7h1zm-893 15c-2 0-3-1-5-1 2 3 4 5 6 7l3 3c1 1 3 2 4 3-11 0-6 5-14-3l-5-5c-6-6-14-11-22-15-6-3-12-4-14-5 2-1 4-2 6-2 4-2 8-3 13-5 3-1 5-1 7-2 1 2 6 6 9 8l2 1h-5c1 2 2 3 3 4l4 4 9 7zm813-21c0-4 0-7 2-10 1-2 3-6 5-6 0 5 9 15 4 24-1 2-3 4-5 3-3-1-6-7-6-11m-787 11c-4 0-6-6-6-11 0-7 5-11 6-17 4 4 5 8 6 14 1 7-4 14-6 14m-10-10v3c-2-1-3-1-6-1v-5h6zm813-3c3 1 2 0 6 0 0 3 0 3 1 5-3 0-5 0-7 1 0-1 1-4 0-7zm-69 10c0-4 5-8 8-9 2-1 5-2 7-2h8c-1 5-9 13-17 14-2 0-7 0-7-3zm-698-11h8c2 0 6 1 7 2 5 2 9 5 9 11-7 5-15-1-20-6l-3-4c0-1 0-1-1-2zm786 8c-2 0-6-1-8-2-1 0 0 0-1-1s-1 1-1-1c0-5 7-6 11-6 5 0 8 3 13 3-1 4-10 8-15 8zm-865-8c5 0 5-3 16-3 9 0 14 11-1 11q-4.5 0-9-3c-3-2-5-3-6-5m776-2h6l2 2c-4 1-5 4-7 5v-7zm-672 6v2c-2-1-4-5-8-6l2-2c1 1 4 0 6 0 0 1-1 4-1 6zm7 6h-2c-5-8 1-14 6-19l2-2c1-1 0-1 2-2 4 9-2 23-8 23m689-12 7-7v14c2-1 3-2 5-3 0 6 0 4 2 8-1 2-2 5-2 8l-1-2c0-1-1-2-1-3-4 1-15 17-11 30 0 2 1 3 1 4s-1 1-1 1c-1 1-1 1-1 2l-5 6c-6 6-5 8-12 10 1-2 4-6 5-10h-7c5-4 4-2 9-8 2-2 6-8 7-12-3 0-6 1-11 1l6-4c2-1 3-3 5-5 2-3 6-10 7-13-2 1-4 2-7 2l5-5c4-4 4-8 6-12h-6zm-40-3c0-3 1-5 1-8 3 2 9 8 10 11q3 6 0 12c-8 0-11-8-11-15m-680 3h-6c0 3 3 8 4 10 2 3 4 6 7 8-4 0-4-1-7-2 1 5 4 10 7 13 3 4 5 6 9 8 1 0 0 0 1 1l1 1c-5 0-8-1-11-1 0 1 1 2 1 3l3 6c2 3 7 8 9 10 1 0 1 1 2 1l1 1h-8c1 2 1 4 2 5 1 2 2 3 3 5-6-1-3-1-8-6-1-1-1-1-2-3-3-4-6-6-9-11 4-8 1-20-4-27-1-2-4-6-6-6l-2 6c0-4-1-6-2-9 2-3 2-1 2-8 2 1 3 3 5 3v-14l1 1c0 1 0 1 1 1l6 5zm776 0c1-2 1-4 1-7 3 1 0 1 6 1 0 1 0 2 1 3-1 1-3 1-4 1zm-839-6c4 0 4 0 6-1v7c-10-5-7 0-7-6zm826-1c0-5 1-7 3-12l2-2c1 1 1 3 2 4s1 3 2 4c4 9-1 17-5 14-2-1-4-6-4-9zm-29 16c0-4 0-4 1-6 1-3 4-6 6-8s2-3 4-3c0 8-4 10-9 16-1 1 0 1-2 2zm-789-14c0-10 4-11 5-16h1c1 2 7 8 4 18-3 11-10 4-10-1zm29-5c1 1 1 1 2 1l2 2 2 2 2 2c2 3 4 6 3 11-1 0-1-1-2-1l-2-2c-2-3-9-10-7-14zm838 0c-1 1-1 2-2 2-2 2-5 5-6 7-2 0-3 0-4-1 5-1 9-7 11-8zm-901 0c2 0 18-6 21 2 2 5-11 8-19 1-2-2-2-2-2-3m883 7c-17 0-9-10-1-10 4 0 9 3 13 3-2 3-7 7-12 7m-890-7c2 1 3 3 6 5 2 2 4 4 7 4-1 1-1 1-3 1l-2-2-7-8zm53-2 1 1c0 1-1 3-1 5zm801 5-1-1v-3c0-1 0 0 1-2zm-50 8c-3 0-3 0-6-2 0-5 3-8 7-10 3-1 4-1 7-1h9c-1 2-1 3-3 4-3 4-8 8-14 8zm-717-13c5 0 11-1 15 1 6 2 8 5 8 10-3 2-2 2-6 2-8 0-13-7-17-13m695-2c0-6 0-4 1-10l10 10c2 3 2 4 2 8 0 3-1 3-2 5-6 0-11-7-11-13m-729 2-1-1zm62 10h-1c-4-5-2-11 2-16 2-2 5-6 7-7 1 5 3 11-1 17-1 2-4 5-7 5zm754-15c0-5 1-12 5-14 4 8 8 12 4 20-1 1-2 3-4 2-3 0-5-5-5-8m14 2v-2l2 2-2 1zm-859 0-2-1 2-2v2zm3-1c0-8 4-9 6-15 5 4 8 19 0 22-3 1-6-4-6-8zm101-5s6 5 2 8l-2 2c0-2 1-2 0-5zm780 26s7-6 9-10c1-2 5-5 5-7-3 1-6 2-9 4l-2 2c-2 1-3 2-4 4-4 5-4 5-6 4l9-12 4-3c1-1 3-2 5-3 5-2 13-4 18-4l-12 14c-4 4-9 10-17 10zm-941-24c7 0 17 3 23 7 3 2 15 16 12 16-1 0-2-1-2-2l-2-2c-4-4-9-9-16-11l3 4 2 2 5 6c2 1 3 2 4 4-10 0-16-9-20-13-1-1-1-1-1-2zm951-1-1 1zm-79 28c-2-1 0 0-1-2l-1-2c0-1 0-1 1-2 0-1 1-1 1-2 2-5 1-6 2-11 0-2 1-2 2-3l3-3 3-3c2-2 1-3 3-4 0 13-7 12-11 23-1 2-2 6-2 9m-787-31c2 1 2 3 6 6l3 3c5 5 1 5 4 14 1 3 3 3 2 6-1 2 0 1-1 2 0-6-3-12-6-16s-7-6-7-15zm725 12c-5-3-4-4-2-7 1-1 1-2 3-3-1 3 0 7 0 10zm78-9c0-5-1-14 1-18h6c0 8-1 13-8 18zm-59 1c0-10 10-18 17-18 0 8-1 14-6 19-7 7-10 3-10-1zm-754-18v-2h6c3 5 1 11 1 18-5-3-8-8-8-16zm780 38c0-6 1-10 3-15 2-4 6-10 9-13l3-3c1 0 1-1 1-1l7-6c2-2 0-1 2-2h4c0 11-7 16-13 22-2 2-3 2-5 4l-2 2-10 10-1 1zm-29-20c-1-1-7-6-9-9l3-3c1-1 3-2 4-2 2-1 7-3 9-3-2 3-8 4-8 17zm-689-17c4 0 14 4 16 8-1 2-2 3-4 5-2 1-3 3-5 4 0-13-5-13-8-17zm-52-3 6 1c1 2 1 1 4 4l2 2 6 6c4 4 7 9 10 14 1 3 3 10 3 14-4-5-1-2-8-9-9-9-23-17-23-31zm39 1c6 0 12 5 15 10 3 6 3 14-3 12-3-1-5-3-7-5-4-4-4-10-5-17m798 19c-4 0-7-1-5-7 1-2 3-5 5-7 5-4 10-6 17-6 0 4-10 19-17 19zm-892-19c8 0 15 3 19 9 9 12-6 18-17-2l-2-4-1-2zm816 22h-4c2-3 3-2 5-8s2-7 2-14l9-1-11 20c-1 1-1 2-1 3m9 0h-6c3-6 5-11 9-17l4-5h12l-1 1-1 1c-3 3-8 7-11 11-2 2-6 7-6 10zm-744-23 9 1c0 7 1 13 4 18 1 2 2 3 3 4h-4c-1-6-10-18-12-23m-16 0h12c1 1 1 1 2 3l8 14 3 6h-6c0-2-3-5-4-7-6-9-14-14-16-16zm803 17-1-2c3-4 3-10 3-15h8c-3 6-8 11-9 18zm-835-18h8c0 2 0 8 1 10 1 4 3 6 1 8 0-7-6-12-9-18zm-38-5c10 2 24 5 35 5l3 6c0 2-5 8-6 10h-1c0-11-13-16-22-17-2 0-4 0-6-1-3-1-3-3-4-3zm889 22c-1-1-2-2-3-4-1-1-1-1-1-2-3-4-3-5 0-11 7 0 12-1 18-2 3 0 5-1 8-2 1 0 3-1 4-1s3-1 4-1c-4 6-8 2-20 7-4 2-5 3-8 5-2 2-4 6-4 9zm27-7c1-5 7-11 11-14 4-2 10-4 14-4l6-1-12 14-2 2c-5 6-14 13-22 15-7 2-7 0-3-4 2-2 7-4 13-9l8-7c-4 0-11 5-15 7zm-942-19h5c5 0 11 2 15 4 3 2 5 4 7 6 1 2 4 6 5 8-3-2-11-7-15-7l13 10c4 3 11 5 12 10-10 0-18-6-24-13l-17-20zm903-47c1-3 2-4 2-7 1-2 1-5 2-7l1 2c1 4 2 5 5 9l1 1c1 1 1 0 1 1h-12zm-837-14c1 1 1 7 5 14h-13l3-3c1-1 1-2 2-3 1-2 3-6 3-8m736 105c0-1 0 1-1-1v-2c-2-10 4-22 8-31l7-13c5-9 14-26 22-31s18-7 28-7h25c10 0 31-1 42-3 12-2 25-4 32-12l2-2c3-4 6-11 6-17 5 11 0 34-2 45-1 7-3 13-8 18-1 1-3 3-5 4-12 10-27 10-40 11l-51 1c-11 0-23 0-33 2-12 2-24 10-30 22-3 5-3 7-3 15zM946 892c-1 2-7 11-7 22-1-1-2-1-2-2-2-2-6-4-9-5 3-6 14-15 19-16zm-150-3c0-5 1-10 2-14h1c0 4 2 10 4 13q3 6 9 9c9 6 24 8 35 9 3 0 6 0 8 1 5 1 12 0 17 1l34 1c9 0 21 2 28 7 4 3 7 7 10 12 1 1 1 2 2 3l3 6c5 8 8 15 12 23 3 6 9 19 9 26 0 3 0 6-1 9l-1 1c0-9-1-14-6-20-2-2-2-3-4-5-3-3-6-6-10-7-13-7-29-7-46-7l-34-1c-5-1-12 0-16-1-18-1-40-4-49-21-5-9-5-18-7-28-1-4-2-11-2-16zm827 3c4 1 12 7 15 11 1 1 3 4 4 5-4 1-6 3-9 4l-3 2c-2-8-1-14-8-23zm40 5c-1-3-2-4-4-6 5-3 1-1 5-3 2 1 2 1 5 1l-3 3c-2 2-1 3-3 4zm-764-7c3 0 3 0 5-1l2 2c1 1 1 1 3 1-1 2-3 3-4 6l-3-4c-1-1-2-2-3-4m829 11c0-2 0-3 1-4l3-3c2-2 5-3 8-4 6-2 12-3 20-3-1 8-20 12-27 13-1 0-3 1-5 1m-920-14c7 0 15 1 20 3 3 1 7 3 9 5 2 3 2 3 3 6-3 0-15-3-19-4s-10-4-12-8c0-1 0-1-1-2m98 17c2-9 6-11 14-14s4-1 12-5c-2 8-5 15-11 20l-2 1h-2c-3 0-8-1-11-1zm819-19c4 0 0 1 7 0 2 3 2 1 3 3-4 0-5 3-8 5 0-3-1-5-2-8m-90 0c1 0 3 2 7 4 7 3 18 5 18 16-3 1-11 1-13 2-10-7-11-17-13-21zm-796 8-1-1c-2-2-4-3-6-4v-1c2 0 2-1 3-2 2 0 3 1 4 1h3c-1 2-2 5-2 8zm8 9h-1c-2-3-2-2-2-9 0-6 3-9 6-12l7-6c1-1 2-1 2-3h1c0 4 3 13-2 21-2 3-5 7-10 7zm860-28c1 0 11 9 13 11 6 8 4 25-8 13-2-2-3-4-4-6-3-7-1-14-1-18m-43 32c2-3 2-6 5-9 9-8 15-8 21-16l3-4c0 10-7 28-14 29zm-791-29c3 2 2 6 16 13 1 1 3 2 4 3l4 3c4 5 3 6 5 10h-14c-3 0-3-1-5-3-6-6-10-19-10-27zm-10 1c2 1 3 0 6 0 1 10 6 19 10 27h-8l-5-12c-1-4-3-10-3-15m831 27h-8c4-7 10-19 10-27h6c0 1-1 6-1 7-1 5-4 15-7 20m-894-33 2 4c3 6 7 7 10 9-5 0-9 1-10-2-2-4-2-6-2-11m952 13c1-1 6-3 10-10l2-4c0 4-1 8-2 11-2 4-4 3-10 3m-869-2c-2-1-7-7-8-10 1-1 1-2 2-3 1 2 2 5 3 7zm798 0c0-2 4-6 5-12 1 1 1 1 2 1l1 2c-2 3-5 7-8 9m-25-11c2 0 4-2 4-4 2 1 2 4 5 4-1 2-4 3-4 6zm-753 6-4-6c2-1 3-2 4-4l1 1c2 2 2 2 4 3-2 2-3 3-4 6zm5 12c-8 0-4-12 3-17l14-6c0 6-2 11-5 15-2 3-5 5-8 7-1 0-4 1-4 1m730-22 7 3c3 1 4 2 7 3 10 6 10 23-3 14-2-2-3-2-5-5-2-4-5-9-5-15zm99 19c-9 0-4-10 2-13 7-4 13-3 21-5-1 6-10 14-15 16-2 1-6 2-9 2zm-935-19c10 2 17 0 25 8 12 12-6 15-18 2-5-5-5-5-7-10m31 9c0-10 4-12 10-18l2-2 1-1 1-1c1 7 3 16-4 25-5 5-10 4-10-3m882-13c0-4 1-6 1-9l2 2 2 2c2 2 7 5 8 9 2 4 3 16-2 15-6 0-11-10-11-19m17 2c4 0 3 0 5-1 1 2 1 2 3 4-2 0-3 2-5 3l-1 1c0-3-1-5-2-7m-852-2 11 5c6 4 11 10 10 17-4 1-5 0-8-2-6-3-12-14-12-21zm-30 12c2-7 2-3 2-16 5 2 5 2 4 9 0 3-4 6-7 7zm862-16v9c0 3 1 5 2 7l-4-3c-3-3-3-3-3-7 0-3 1-3 5-5zm-882 12-2-2c-1-1-2-1-3-2 1-2 2-2 3-4 2 1 2 1 5 1-1 2-2 4-2 7zm836 14h-2c-1-6 3-12 7-15s10-5 14-8c-1 6-2 10-6 15-2 3-7 8-13 8m-863-24h1zm900-6 4-2c2 1 0 2 3 2v1c-2 0-3 1-4 2-1-1-1-2-2-4zm-845 4c-1-1-2-2-4-2 1-2 2-1 2-3 2 0 1 0 2 1 1 0 2 1 2 1l-2 4zm5 13c-6 0-5-10 1-16 5-5 12-6 17-9 0 4 0 6-1 9-2 7-7 15-16 15zm820-24c2 1 4 2 7 3 5 2 9 4 12 8 6 9 1 17-10 10-6-4-9-13-9-22zm-22 8h-1c-1-4-2-3-3-5 2-1 3-1 4-3 1 1 2 1 3 1-1 2-3 4-3 7m-762-7c1 0 2-1 3-1 1 2 2 2 4 3-1 2-2 3-3 5-1-1-1-2-2-3s-1-2-2-3zm847 15c-3 0-3 0-5-1 0-4 0-4 3-7 2-2 3-3 6-4 4-2 11-2 16-3-1 6-11 16-19 16zm-949-16c7 2 19 1 24 10s-10 7-16 0c-5-5-5-5-7-11zm112 17c-2 0-2-1-3-1 0-9 4-13 12-15 2-1 4-2 6-2 0 7-6 19-15 19zm729-19c2 0 2 1 4 1 6 2 11 3 14 11 2 5 0 5-1 7-6 0-9-2-12-6-2-3-4-8-4-13zm-815 9c-2-1-2-2-3-4-1-1-3-2-4-3 2 0 3-2 4-2h5c-1 3-1 4-1 8zm914-8c3 0 3 0 5-1 1 1 1 2 3 2-1 1-1 1-4 3-2 1-2 2-3 3 0-2-1-6-1-8zm-70 19h-4c-3-14 13-18 19-22 0 7-3 13-6 17-2 2-6 5-9 5m-836-5c-5 0-6-11 3-19l2-2c2-1 3-3 4-4 1 6 1 14-2 19-1 3-5 6-8 6zm49-18c7 5 14 4 18 13 1 3 2 6 1 8-4 1-6 1-10-2l-2-2c-4-4-6-10-6-17zm841 0c0-2 1-5 1-7l8 7c4 4 5 6 5 12 0 9-11 6-13-7 0-1-1-5-1-6zm-3 0v5c0 2 1 2 1 4-1 0-1 1-2-1 0-1-1-2-1-3-3 1-2 2-4 5-2-1-2-1-3-2 0-7 5-14 9-16v7zm-874-7c4 3 12 13 8 17l-2 1c-1-1-1-2-1-3-1-2-1-2-2-2 0 1-2 5-3 3 0 0 1-5 1-8v-9zm860 0c3 0 4-1 6-2l2 2c0 2-2 3-3 5l-1 2c-1-3-1-3-3-7zm-849 7h-1c0-1-1-2-2-3-1-2-1-2-3-3v-1c1 0 3-1 3-1 2 0 1 0 2 1h3c-1 2-3 5-3 7zm869-10c1 0 2-1 2-1 0 2 1 3 1 4zm-889 3c0-1 1-3 1-4 1 1 0 1 2 1zm22 12c0-13 11-16 17-20 1-1 2-1 3-2 0 6 0 7-1 12-4 15-20 19-20 10zm51 0c-8 0-3-11 2-13 4-2 8-2 11-4 0 7-5 18-13 18zm-114-16c8 0 14 0 19 5 3 3 3 4 3 7-9 5-19-4-22-11zm957 14c-4 0-3 0-6-2 0-12 15-12 23-12-3 6-9 14-17 14m-67-19c6 4 14 6 18 13 5 8 4 19-9 11l-3-3c-5-5-6-13-6-21m-43 4c9 4 18 2 18 16-2 2-1 1-4 1-4 0-8-3-9-6-4-5-3-11-4-12zm25 16c-6 0-4-10 3-15 3-2 7-3 11-5 0 6-1 10-3 13s-5 7-10 7zm-782-20c2 1 3 2 5 3 5 2 12 6 12 12v4c-4 2-5 2-9-1-2-1-3-2-4-4-2-3-3-9-3-13zm-61 18h-1c-2-3-2-2-2-7 0-4 3-7 5-9 2-1 7-6 7-7 2 1 1 0 1 2 2 8-2 21-10 21m907-23c2 1 9 8 10 10 2 3 3 7 2 11-2 8-17-2-12-20zm-72 12c-5 0-5-9-5-12s3-8 4-10l6-8c3 6 4 17 1 24-1 2-3 6-6 6m-762-16c0-9 2-10 3-13l2 2c4 6 12 13 8 24-3 7-7 3-10-2-1-3-2-6-2-10zm812-2c3 0 4-2 7-2 0 2 0 1 2 2-1 2-1 1-3 3s-1 2-3 3c0-2-2-4-3-5zm-860-3c2 1 3 3 6 3-1 3-3 3-3 6-1-1-2-2-2-3-1-1-2-2-3-2 1-2 1-1 2-3zm10 20c-1 0-2 0-3-1-3-4 0-13 6-18 3-2 8-4 14-8 0 10-2 17-9 23-2 1-5 3-8 3zm830-27c9 6 21 7 21 23 0 7-12 4-17-5-3-5-4-10-4-18m-886-2c2 0 4 2 6 3l5 5c4 5 7 13 4 20h-2c-3 0-9-7-10-10-2-6-3-9-3-17zm932 17c-2-1-2-4-4-5 0 2-1 2-1 3-1 3-2 7-2 11l-5 2c-8 3-8 1-8-3 0-8 9-15 17-17 3-1 6-2 8-4 0 2-1 5-2 7s-1 4-3 6m-909-12c7 4 18 4 24 16 5 9 0 10-7 8l-5-2c0-6-1-10-3-14-2 1-2 3-5 5 0-2-2-4-2-6zm924 23h-1c-2-3-2-2-2-6 0-9 9-21 17-21 0 9-3 21-10 26-1 1-2 2-4 2zm-4-36v1zm-33-2c3 0 3-1 5-2 1 1 1 2 3 2 0 2-1 2-2 3s-1 2-2 3l-3-5v-1zm-864 6h-1c0-2-3-5-4-5 1-1 2-1 3-3 2 1 2 2 5 2-1 2-3 3-3 6m844-14 10 5c12 7 13 21 7 21s-11-5-13-9c-3-5-4-9-4-17m-871 2c3 2 10 3 15 6 11 6 13 21 0 17-5-2-7-4-10-7-1-1-1-2-2-3s-1-2-2-3c-1-3-2-5-2-9zm900 23c-8 0-4-13 4-17l16-6c0 1-4 23-20 23m-866 0h-3c-1-2-3-3-2-9 2-6 6-10 12-13l7-4h1c0 2-1 7-1 9-1 5-4 10-8 13-1 1-5 3-7 3zm886 16-4-4c1-5 6-19 9-23 6-10 10-9 16-16v-1c0 7-7 17-12 21-6 6-10 11-10 22zm-942-43 13 11 2 2c4 5 10 20 11 26-1 1-3 4-4 4 0-18-9-18-17-32-2-3-4-8-4-12zm888 39c-3-2-3-3-5-4l-1 4v-3h-1c-1 4-9 7-12 8 1-3 3-6 3-9 1-18-7-17-2-22l3-4c1-1 0-1 2-1 0 2 1 5 2 7 4 14 0 18 0 24 3-2 5-13 5-17 0-7-1-13-3-19l2-2c2-2 10-12 13-12 0 2 1 4 2 6s2 3 3 5c-2 0-5-3-7-4 0 8 0 13 2 21 1 2 2 4 2 6-5-3-7-5-9-7 0 2-1 4 0 7 0 8 3 14 4 19zm-820-40c4-6 3-8 5-11l13 13c1 1-1 5-1 7-2 8-2 19 2 27 1 1 1 2 2 3-2-4-3-10-2-15 1-8 3-13 3-15 2 0 1 0 2 1l2 2c5 6 3 2 0 12-2 7-2 15 1 22-2 0 0 0-2-1-8-3-9-7-11-7l-1 3v-3c-2 0-2 1-3 2s-1 2-3 2c4-8 5-15 5-24 0-3-3 2-10 5 0-1 1-1 1-3 3-6 3-13 3-20v-4c-2 1-5 4-7 4zm846-11c2 0 4-1 5-1l5 2c-1 2-4 4-5 7h-1c-1-3-3-5-4-8m-868 8-6-8c6-1 1-3 7-1 1 0 2 0 3 1-1 2-4 6-4 8m8 10c-3 0-6 0-6-5s5-11 8-14l4-3c1-1 4-2 6-2 5 1 2 7 1 10l-3 6c-2 3-6 8-10 8m841-21 3-2c4-1 18 8 18 20 0 5-8 7-15-4-3-4-5-8-6-14m31 21c-4 0-7-1-4-8 1-2 3-6 5-8 4-3 8-5 13-6 2-1 3-2 5-2 0 9-9 24-19 24m-906-24 8 3c5 2 10 5 13 9 2 3 4 7 2 11-14 3-23-15-23-23m884-4c1-1 1-2 3-3l8-7c1 1 2 3 3 4 1 3 4 12-1 12-4 0-5 0-8-2-2-1-3-2-4-4zm-852 6h-5c-2-7 1-10 4-16 1 1 2 2 3 2l8 8c-1 2-2 3-4 4-1 1-4 2-6 2m894 28c0-2 2-9 3-13 0-1 1-3 1-4-1 1-2 2-3 2-1 1-2 2-3 2 0-2 1-2 3-5 4-8 3-15 4-19-3 0-2 2-6 3l9-10c1-1 1-1 2-3l6-8c0 14 0 18-4 30-3 8-4 11-8 18-1 3-2 4-3 6zm-925-34c-3-1-3-2-5-3 0 7 1 16 5 22 1 1 1 1 2 3l-7-5 3 13c0 2 1 3 1 4-1-1-1-1-2-3l-6-12c-3-7-4-9-6-16-1-2-1-5-2-7-1-6-1-10-1-17 2 0 2 2 4 5 3 4 11 13 13 15zm899-4c-2-5 0-2-4-7 1-1 4-3 5-4q1.5 3 6 3c-1 2-3 2-5 6zm-883-8c7 0 4-5 9-1 1 1 1 1 2 1 0 2-1 2-2 4s-1 3-2 4c-1-4-6-7-7-8m890 19c-5 0-7-1-5-8 1-2 4-6 6-7 4-3 8-4 13-6 2-1 3-1 5-2 0 6-6 16-12 20-2 1-5 3-8 3zm-910-23c3 2 10 3 16 6 10 6 14 21-1 16l-2-1c-2-1-5-4-7-6s-3-4-4-7c-1-2-2-6-2-8m102-17v1zm808 18c-2 0-3-1-4-2 2 0 4-3 7-4 1-1 2-1 3-2l16-11c0 2-2 5-3 7-3 5-11 13-18 13zm-913-20 6 4c2 2 17 13 19 14-2 2-4 3-7 2l-11-7c-3-3-6-6-7-11 0-1-1-2-1-2zm831-1 2 2c2 2 4 3 6 7l-5 4c0-6-1-7-3-12 0-1 0-1-1-2zm-728 0c-1 4-3 6-3 13l-4-4c0-1 2-4 4-5l4-4zm728-5c2-1 14 0 18 1 1 0 2 1 3 1-1 1-1 2-2 2-2 1-6 5-8 7l-8-9c-3-3-1-1-2-3zm-738 12-8-7c-1-1-2-1-3-2 11-3 5-3 19-3 4 0-2 5-3 6-2 2-5 4-6 6zm-18-16h5c1 2 2 2 5 3l-6 2-4-4zm781 4c-2 0-3-1-6-1 2-1 3-1 5-3 3 1 3 1 6 0-2 2-3 2-5 5zm-781-4h-1zm39 38c-1-5-4 4 1-15l4-13c-2 1-5 6-6 9-1 2-1 3-2 5s-2 4-2 6l-4-4c2-7 10-20 17-25 2-1 2-3 6-4-1 3-4 9-6 21-1 4-2 7-2 11-1 3-2 9-4 9zm694-41c1 0 2 1 4 2 6 6 10 10 15 18 3 6 6 8 3 11l-2 2c0-2-1-4-2-6s-1-4-2-5c-2-3-3-7-6-9l4 12c1 2 2 11 4 13 0 1-1 1-1 2-1 1 0 1-2 2-1-1-2-3-2-4-1-2-1-3-1-5-1-4-2-7-2-11l-4-16c-1-1-1-3-2-5zm121-4 7-6 2-2c-1 7-4 8-9 8m-931-9c1 0 9 8 9 9-4 0-8 0-9-9m93 16c-2 0-4 0-6-1-7-3 0-14 18-14 3 0 8 0 10-1-1 4-5 8-8 11-4 3-7 6-13 6zm731-16c8 2 17 0 26 5 4 3 9 11-4 11-5 0-10-2-14-5l-5-5c-2-2-3-4-4-6zm-757-4c0-7 0-5 1-11 2 0 8 8 10 9 11 13 3 27-7 13-2-3-4-7-4-11m787 9c-2-2-4-4-8-4v-1c2 0 2-1 2-4 3 1 3 1 7 1-1 4-1 1-1 8m-770-8c4 0 4 0 7-1 1 4 2 2 2 5-4 0-5 2-7 4 0-2-1-6-2-8m798 4v-12c3 0 6 4 6 6 0 1-5 5-6 6m-829-6c0-2 1-2 2-4l2-1c1-1 1-1 2-1v11zm809 18c-7 0-5-12-1-17l11-11c0 4 5 14-3 24-1 2-4 4-7 4m58-4c1-2 2-10 3-13s2-1 6-2c2 0 4-2 6-3-1 6-1 7-4 12-2 2-7 6-10 6zm-913-18c6 3 1 3 12 3 0 5 2 11 3 15-3 0-6-2-8-4l-1-1-1-1c-1-1-2-3-3-5zm918-3v1zm-34-4 5-1c0 6 0 5-2 7-1 1-1 2-3 2 0-4-4-6-6-7s-1-3 1-3 4 1 5 1zm-795 12c0-5 3-9 8-10 6-2 9-1 15-1h3c0 1-1 3-2 3-4 5-9 9-16 10-4 1-6 0-8-2m-44-3-1-1c-6-6-4-3-4-9h4c3 0 4-1 7-1 0 4 0 2-4 5q-3 1.5-3 6zm769-9h2c10 0 13-2 20 3l3 3c7 10-16 12-25-6m34 8h-2c-4-6-2-13 3-18l7-7c2 7 3 14-1 20-1 2-4 5-7 5m-7-5c-2-1-3-4-8-5v-1c2 0 2-1 3-2 4 2 4 1 6 1-1 3 0 4 0 7zm-753-7c3 1 4 0 6-1 1 2 2 1 3 3-4 0-7 4-9 5zm-16-2c0-4 0-9 2-11 0 2 2 3 3 4 6 6 11 13 6 21-4 0-6-1-8-5-1-2-3-5-3-9m819 7c0-7 1-3 2-8 3 2 3 1 5 0-1 2-3 4-5 5l-2 2zm-861-7c2 0 2 1 5-1 0 1 0 1 1 2 2 3 2 0 2 6l-7-7zm39 6c-4-2-4-6-4-10 2 3 4 7 4 10m797-10c2 1 3 3 6 5 1 1 2 1 3 2-2 4-1 15-1 21-1 0-2 1-3 2s-1 1-3 2c0-2 1-3 2-5 4-12-4-21-4-27m-6 10c1-5 2-6 4-10l1-1c0 5-2 9-5 11m-799 22c-2-1-2-1-5-4v-5c0-6-1-14-1-16 2 0 4-2 5-3l4-3c0 1-1 2-1 4-2 6-7 15-3 24l2 4zm847 6h17c3 0 5 1 8 0h9l-12 9c-11 8-19 14-29 21l-28 25c-6 5-8 7-13 13l-5 5c-8 9-14 16-19 27l-4 10c0 1-1 2-1 3l-1 2c-3-14-22-46-13-64l5-8c4-4 13-14 17-17l68-63c7-7 8-12 9-14 0 6-1 9-1 13l-7 37zm-102-46c6 1 13-2 20 2 3 2 11 10-3 10-5 0-12-4-14-8-3-4-1-2-3-5zm-701 12c-16 0-5-12 6-12 4 0 7 1 11 0-1 6-10 12-17 12m-36-5c-2 0-1 0-1-4 0-2 0-3 1-4l1-4c0 1 1 2 1 4 0 4-2 5-2 9zm-57-12c1 2 3 7 8 12l3 4 2 2c3 4 8 9 12 12 1 1 2 2 4 3l7 6c1 1 2 2 4 3l15 13c3 3 9 8 14 13l27 27c3 3 3 4 6 8 8 13-3 40-9 52-1 2-4 10-4 13h-1c0-3-4-12-6-15l-5-9c-1-1-1-1-1-2-3-4-8-11-11-14l-2-2c-4-6-11-12-16-17l-15-13-2-2-2-2-36-28c-1-1-1-1-2-1l-2-2c-2-2-12-8-12-9h35c0-7-8-37-8-51zm845 4c0-1 1-3 1-4l1 3c1 3 2 6 1 9l-1 1c0-2-1-3-1-5 0-1-1-4-1-4m-19 12c-4 0-6-7-3-13 1-2 7-10 9-12 0 2 1 3 2 5 1 5 1 10-2 15-1 2-5 6-6 6zm-756-25h1c0 2 2 3 3 4 3 4 7 8 7 14 0 5-4 11-11 1-2-4-3-9-1-14 0-2 1-3 2-5zm779 9c8 2 17 0 24 6 5 5 6 11-1 11-9 0-15-4-19-11l-2-5-1-2zm-816 17c-6 0-4 0-8-2 0-4 1-5 3-8 7-8 17-5 24-7-2 8-10 18-20 18zm843-12c-2-2-3-4-7-5 1-1 2-1 3-3 3 1 3 1 5 0 0 2-1 3-1 8m-852-8c5 1 3-1 6 0l3 2c-1 1-2 1-4 2s-2 2-3 3c0-3 0-5-1-8zm859 16c-4 0-5-2-5-7 0-8 6-13 12-17l5-5c0 5 3 13-3 21-1 2-6 7-10 7zm-879-20c0-3 0-7 1-9l4 4c3 3 5 4 8 7 4 4 6 11 2 17-6 0-9-2-12-7-2-4-4-8-4-13zm900 32c0-3 1-7 1-10l2-10c1-4 5-14 10-13 1 0 0 2 0 4-2 12 1 28-10 30 3-5 5-11 5-17l-1 2c-1 4-4 11-7 14m-922-32c4 0 4 1 7 4 5 8 5 18 7 28-2-2-6-11-7-14-1-2 0-1-1-2l2 9c1 3 2 5 3 8-5-1-7-5-8-9-2-8-1-21-3-25zm96 3c-2-1-5-5-6-7-1-1-1-1 0-2 0-2 2-7 3-8 1 4 6 5 10 5-1 2-6 5-6 12zm738-12c8 0 7-4 10-5 1 7 5 5-1 13l-3 3c-3-6 2 1-6-11m-730 19c-4 0-5-4-4-7 1-4 4-8 8-11l3-3c2-1 5-4 8-5 0 9-4 19-11 24-1 1-2 1-4 1zm713-25c3 0 8 4 11 7s9 9 9 13c0 8-13 8-19-11-1-3-1-5-1-9m41 1c1 0 3 0 4 1h5c19 1 24 19 10 17-6-1-11-4-14-8-5-7-3-5-6-10zm-808 15c0-5 5-10 9-12 6-2 12-2 18-3-4 18-27 22-27 15m-20-18c0-8 1-6 1-10l12 10c6 6 7 15 3 18-1 0-2 1-2 1-6 0-14-10-14-18zm855 9c-1-1-1-2-3-3-1-1-3-1-4-3 3 0 2-1 4-2 3 2 2 1 5 0-1 2-2 4-2 7zm-836-7c6 1 1 1 6 0 0 1 0 1 1 1 1 1 0 0 2 1v1c-3 0-4 3-6 4l-1 1c0-4-1-5-2-8m839 10c0-9 8-15 14-20l2-2c2 8 2 15-3 22s-14 11-14 0zm-26 5c0 2-1 2-1 5l-1-1v-1h-1c0 3-2 6-4 8v-3c0-6-3-12-3-19h-1c0 2-1 2-2 3 0-3-1-5-1-8 6-1 4-2 8-4l2 2c1 0 1 0 1 1l1 1c-2 0-3-1-5-1 0 5 2 10 4 14l3 4zm-64-20c3 2 9 7 15 7 0 3 2 9 3 12s3 7 5 10c-10 0-17-10-21-18-1-3-3-6-3-10zm-721 3 4-3 3 3 4 2c0 3-1 5-1 8-1-1-2-2-2-3h-1c0 7-3 14-3 19v3c-2-1-4-5-4-8-1 1-1 0-1 2h-1c0-2-1-3-1-4l1-1c1-1 1-1 1-2 3-4 5-9 5-14-2 0-3 1-5 1zm38 25c4-5 9-14 9-21 6 0 12-5 15-7-1 9-10 29-24 29zm-12-21c-9 0-11-5-5-11s19-5 27-5c0 2-2 5-3 6l-2 3c-1 1-6 5-8 6-1 1-6 2-8 2zm708-16c9 0 20-1 26 4 3 3 7 8 1 10-7 3-15 0-21-5l-1-1c-4-4-3-3-6-9zm29-5c0 3-1 2-1 6-4-3-7-2-8-4 2 0 2-1 3-2h5zm-745 0h5c1 1 1 2 3 2-1 1-2 1-4 2l-4 2c0-3 0-3-1-6zm-38 16c0-4 0-6 3-9 2-2 3-3 6-4s5-1 9-2l9-1c-1 5-6 11-10 14-2 2-5 3-8 4-2 0-3 1-5 0-3-1-2-1-4-2m794-16c1 0 4 1 5 1h5c4 1 6 1 9 2s4 3 6 5 3 6 1 8c-5 4-16-1-20-6-5-7-3-5-6-11zm27 5-3-3c-1-1-2-1-4-2 1-2 3-1 3-4 2 1 2 2 5 2l-1 3c0 1-1 2-1 4zm-823-7c4 0 3 0 5-2 1 4 1 2 3 4-2 0-3 1-5 3l-1 1c-1-1-1-2-1-3s-1-2-1-3m829 16c-4 0-4-4-4-7 0-5 3-9 6-12 2-2 9-6 9-9h1c0 5 3 12-3 21-2 2-6 7-10 7zm-847-20c0-2 1-7 1-8l6 6 6 6c2 3 3 4 3 8 2 10-7 10-13 1-2-3-4-8-4-13zm815 14c0 1-1 3-2 3-6 6-12-4-6-16 1-1 2-4 3-5 1 1 1 2 2 3l3 2c-2 0-3-1-5-1 0 10 4 11 4 13zm-770-12c1-2 4-3 5-5 3 1 7 11 7 14 0 2 0 3-1 5l-2 4c-5 0-7-3-7-5 0-1 4-3 4-13-2 0-3 1-5 1zm8-12c0-3 0-14 4-15 1 2 3 5 5 7 3 4 4 10 2 15-4 8-11-3-11-8zm712 0c6 2 15-2 22 2s10 12-3 12c-7 0-14-5-18-11zm-689 14c-15 0-7-11 1-13s15 1 19-1c-1 6-10 14-19 14zm725-4c-4 0-8-9-1-19l5-8c1 4 7 11 1 22-1 2-4 4-5 4zm-768 2c-11 0-6-10 2-13 5-2 13-1 16-3 0 6-9 16-19 16zm796-16c2 0 1-1 2-2 1 1 2 2 4 2 0 2-1 3-1 5-2-1-3-3-5-3v-1zm-19 0c2 1 5 1 8 1 6 1 12 1 16 8 5 9-6 8-11 6-1 0-2-1-3-1-7-4-8-10-10-13zm-784 0c3 0 3-1 4-2 0 2 0 2 2 2v1c-2 1-3 2-5 3 0-1-1-4-1-5zm-18-2c0-4 0-8 2-11 2 1 10 10 11 13 2 4 2 11-1 14-3 2-12-4-12-15zm786 9c-3-1-4-3-8-4l2-5c3 1 2 1 6 1-1 3-2 5-1 8zm-727-8c6 0 4-1 7-1 0 3 1 2 2 5-3 0-5 2-7 4 0-3 0-6-1-8zm32 0-1 1zm744 15c-3 0-9-9 3-22 3-3 4-5 6-6 0 3 5 15-3 23-1 1-4 4-6 4zm-759-13c-9 0-9-7-3-10 4-2 11-3 15-4 3 0 5-1 8-2 0 1-1 2-2 3-4 6-10 13-18 13m722-17c7 0 19 2 22 9 1 4-3 9-12 2l-2-2c-2-1-1 0-2-2-4-5-2-2-5-7zm-14 11c-3 0-8-9-2-18l5-7c2 3 4 10 4 15-1 4-3 11-7 11zm-36-11c4 1 5 2 10 2 4 1 16 2 17 9 1 5-15 11-27-11m-720 14c-3 0-4-2-4-5 0-2 2-3 3-5 2-2 3-2 5-3 4-2 8-2 13-2-1 3-5 7-7 9s-7 6-11 6zm23-16c0-7 3-11 4-14l2 4c3 4 6 8 6 14 0 8-5 12-10 4-1-2-2-6-2-8m724 7c-3-2-1-2-6-4-2-1-1 0-2-1 2-1 2-1 3-3 2 1 3 1 6 1-1 2 0 4 0 7zm-709-7c3 0 4 0 6-1 1 2 0 2 3 3-1 2-3 1-6 4l-2 2c0-2 1-5 0-7zm756 8c0-4 2-8 4-10l6-5 2-2c0 5 3 12-4 19-5 6-9 2-9-2zm-815-18c4 5 12 8 12 18 0 6-4 6-8 3l-3-3c-3-4-4-12-1-17zm742 8h-1zm-669 2c-10 0-7-12 10-12h7c0 4-11 12-18 12zm664-12c5 0 9-2 17 1 12 4 5 17-10 6-1-1-3-2-4-3l-2-2c-1-2-1-2-1-3zm30 9c-6 0-7-8-1-16l1-1c2-2 5-4 7-5 2 7 0 21-7 21zm-37-12h1zm-634 0h-1zm-44-3v-6c2 0 3 1 4 2 5 4 8 6 8 14 0 7-12 8-12-10m-38 17c0-7 0-9 6-16 1-2 3-3 4-5 2-1 4-3 6-3 4 8-4 29-12 26-2-1-2-1-3-2zm782-19c0-7 2-8 7-2 16 16 9 28 0 20-4-3-7-12-7-18m6-9c0-12 3-13 4-17l1 2c3 9 12 20 14 28 0 2 1 4 1 6 0 1-4 5-5 5 0-11-8-19-14-24v-1zm-792 25c-1-1-2-3-4-4 0-16 9-21 14-34v-1c1-3-1 2 0-1 3 4 4 11 4 17-8 5-14 14-14 24zm39-11-1-1c-1-2-1-3-1-6-2 1-4 7-4 9-1 3-3 8-3 12-4-1-8 0-11 0 2-3 3-2 5-8 0-1 0-1 1-2 0-2 0-1 1-2 2-1 1 0 4-3 4-4 6-6 9-11l2-4c0 3-1 5-1 8v8zm727-16c3 4 5 12 15 17 2 1 2 1 3 4 1 2 1 3 2 5 2 3 1 2 3 4-4 0-7-1-11 0 0-5-5-20-7-21 0 2 0 4-1 6l-1 1c0-10-1-13-1-16zm-3 4c0-2 1-2 1-4 0-1 1-3 1-4l1 1v2c-1 2-2 3-3 4zm-722-4 2-5c0 4 0 6 2 9-2 0-3-2-3-4zm21 17c-7 0-4-10-2-14 1-3 3-4 5-6s10-7 13-9c0 4 0 7-1 10-1 2-2 6-3 8-2 4-6 10-12 10zm668-29c3 2 13 8 15 11 11 13 1 24-8 12-6-7-7-12-7-23m-1 16-4-3c-4-3-10-6-16-7 1 3 9 10 12 12 11 7 9 2 14 9-4 0-10-2-12-3-3-1-7-4-10-6l-4-4-2-2-2-2-2-2c-2-2-4-5-7-5 1-1 0-1 4-1 9-1 16 2 24 6 2 1 1 1 2 4 0 2 1 3 1 5zm-649 0 2-7c1-2 2-2 5-3 9-4 15-5 25-3l-2 1-2 2-8 8-2 2-6 5c-2 1-3 2-5 3-3 1-9 3-13 3 1-1 1-1 1-2 2-3 0-2 5-4s10-6 15-9l3-3c1-2 2-2 2-4-1 1-4 1-5 2-7 3-9 5-14 8zm-54 9v-8c-2-10-3-10 4-24l3-7c1-2 2-5 3-8l1 1s0 1 1 2 1 2 1 4c3 10 2 20-3 29-1 2-3 4-4 6-2 2-3 4-6 5m743-29c0-4 0-6 1-11 1-3 2-6 3-7 2 1 0 0 2 6 1 2 1 3 2 5 12 25 6 16 6 36-1-1-2-1-3-2l-1-1-6-8c-2-5-4-12-4-17zm-14 26-6-14c-5-10-5-21-2-32 0-1 1-2 1-4l1 2c2 6 4 11 6 16 2 3 3 6 4 9 2 5 4 12 0 17 0-5-2-8-4-12-1-3-4-9-4-12 0 16 3 15 3 30zm-705-7c-1 0-1 0-2-2-4-8 6-24 9-32 1-2 3-6 3-9 1 1 2 5 2 6 2 10 1 19-3 29-1 3-5 10-5 14h-1c0-11 4-18 4-29-2 1-1 1-2 6-2 6-6 13-6 18zm596-64c11 0 19 2 28 4 4 1 8 3 11 5 6 3 6 3 9 7 5 6 10 11 15 17l9 8c2 1 3 2 4 4 2 1 3 2 5 3v5c-10-7-15-7-27-7-7-13-18-24-30-33-5-4-17-10-22-12h-1zm-538 46c-8 0-13 0-21 3-2 1-3 2-5 3v-5l17-14c6-6 10-9 16-17l4-5c4-3 12-6 16-8 8-3 17-5 28-5l-8 4c-2 1-3 1-4 2-6 4-8 4-15 9-6 4-12 10-16 16-3 4-8 10-10 15zm-42 7c3-13 10-27 18-38l14-18c1-1 1-2 2-3l9-9 2-2c1-1 2-1 3-2 3-3 12-12 15-13 0 7-3 16-5 22-4 10-11 21-18 29-4 5-9 10-13 14-1 1-1 1-3 2l-2 2c-2 1-3 3-5 4-3 3-14 11-17 12m613-85c2 0 1 1 3 2l8 7c3 2 19 18 21 20 10 12 20 24 26 39 1 1 1 2 2 3 1 3 4 11 4 15-2 0-10-6-11-7l-18-15-4-4c-6-6-14-17-18-24-6-11-10-21-12-35zM814 701c-4-2-8-11-12-11 0 2 1 3 2 5 1 3 2 9 3 11 1 3 1 2 3 4h-22l18 15c3 2 2 5 5 11 3 5 6 7 7 9-6-1-9-7-10-8 0 3 1 8 2 11 0 1 1 2 1 4-2-1-2-2-4-4-1-1-2-3-3-4-5-8-2-9-4-11 0 3-3 8-3 14 0 12 0 19 4 30 1 2 1 4 2 6s1 4 3 6c-3-1-9-7-11-12-1-2-2-4-2-6v9c1 5 3 14 5 18l2 3c-3-1-6-4-10-5 2 3 3 3 4 8 2 10 0 15 7 24 1 1 2 2 3 4-1 0-4 0-6-1-5-1-11-3-15-6 1 3 4 9 5 12 3 6 6 7 7 10-3 0-4-1-6-2-1 0-1-1-2-1-1-1-1-1-2-1 1 5 7 15 11 19l2 2c-1 0-2-1-3-1l-3-3c-1-2-1-2-3-3 1 2 1 4 2 5 1 3 2 3 3 6-3 1-5 6-6 8-5 14-1 34 2 49 2 9 5 18 12 23l2 2 2 1c-1 0-7-2-12-3-6-1-9 1-13 1 1 2 0 1 4 4l19 20c3 4 7 6 8 8-4-1-7-3-13-3-5 0-11 0-16 1 1 1 2 2 4 3 4 3 7 7 11 11 3 3 10 12 15 14v1c-5 0-10 4-13 7-4 4-5 8-5 16 0 7 4 18 7 24l4 7c1 2 2 4 4 6 4 6 9 12 13 17 3 4 11 11 16 15 2 2 4 3 7 3l-18-39 2 2 2 2 2 2 2 2c10 10 17 6 19 10 3 3 5 5 9 8 1 0 1 0 1 1l2 1c-9 0-6-1-10-2 2 6 13 15 20 15-6 0-8-2-11-2 0 2 0 1 2 2l7 6c-2 0-4-1-7-1-4-1-10 1-14 2l-6 3c1 1 0 0 4 2 2 1 3 1 4 2 10 6 10 7 16 12 1 1 2 2 4 3 0 5 1 7 2 10 4 11 13 19 21 27l6 6c2 2 4 4 7 5l7 5c-2 0-6-1-9-1-14 0-39 0-50-5-1-1-2-1-4-2-3-1-4-3-6-4 1 3 8 11 10 14 2 2 8 8 11 10 17 13 33 15 54 15h16c-9 0-37 12-56 7-1 0-2-1-4-1 2 3 10 10 12 12 5 4 10 6 17 8 18 6 41-4 42-3 2 1 3 2 5 2s4-1 6-2c0 3 3 7 8 7 2 0 4-1 5-3 1-1 2-3 2-5 2 1 4 3 6 3 5 0 8-7 8-11 1-4 1-4 5-4 6-1 12-1 16 1 2 1 3 3 5 5s2 4 4 6c-4 0-5-2-12-2-11 1-19 10-33 10v1c11 0 22 9 36 6 2 0 3-1 5-1-4 8-14 10-16 12 5 0 10-3 18-2h6c-1 2-4 2-6 3l-5 4c1 0 2 0 3-1 13-4 16-2 22-3 2 0 2-1 4-1l-1 1-3 2c-2 1-3 2-4 3 4-1 7-2 14-4l15-2c-2 2-8 3-11 6l30-5c-3 2-7 3-9 6 6 0 13-5 29-5h5c-2 3-12 10-15 12s-6 0-10-1c-22-5-44 3-65 6-26 4-48-2-71-13-1-1-3-1-4-2s-3-2-5-2c0 9 8 26 13 33 8 10 18 19 31 22 2 1 4 0 5 2l-15 3c-3 0-6 0-8 1-6 1-27-2-33-3-2-1-6-2-8-2 5 10 2 7 10 17 3 4 7 6 11 9 10 7 23 11 35 12 10 1 21 3 31 2l31-3c15-2 34-5 49-2s47 12 64 17c13 3 33 8 46 6 8-1 13-5 16-11s4-16 1-22c-1-2-1-3-2-4-4-6-8-8-10-10 13 3 19 6 34 9 27 4 61 4 88-2 3-1 6-1 9-2s6-2 8-2c2-1 2-1 4-1s3-1 4-1c-11 5-18 24-11 37 8 14 27 12 40 9 15-2 29-6 43-10s29-8 43-11c23-5 45 2 67 4 11 1 23 2 35 1 17-2 34-6 48-16 1-1 2-2 4-3 4-3 7-7 9-11 1-2 4-7 4-9-3 0-11 3-15 3-5 1-21 3-25 2-2 0-6 0-8-1-3 0-5-1-8-1s-5-1-8-1c1-2 2-1 5-2 2-1 3-1 5-2 7-3 15-7 20-13l3-3c7-7 16-27 16-37-18 10-38 19-61 19-9 0-16 0-25-2-15-3-29-7-47-6-2 0-4 0-6 1l-11 2c-5 1-4 0-11-4l-6-4c-1-1-3-2-4-3h9c8 0 21 5 25 5-2-2-5-3-8-5h-2c2 0 6 0 8 1 6 1 12 1 18 3 1 0 2 1 4 1-2-3-7-4-10-5h-1l-1-1c6 0 16 2 22 4 3 1 4 1 7 2-2-3-6-4-8-6 3 0 4 1 7 1 4 0 10 1 14 2 2 0 5 2 7 2-3-4-9-5-12-8 8 1 6 0 13 0 4 0 8 2 12 2-2-2-6-4-9-5-3-2-6-4-7-7 2 0 3 1 5 1 16 3 23-6 36-6v-1c-14 0-21-10-32-10-6 0-8 1-12 2 2-9 10-14 19-13 3 0 6 1 10 1 0 5 4 15 10 14 2 0 4-2 5-3 0 2 1 3 3 5 3 3 7 4 10 1 1-1 2-3 2-5 2 1 2 2 4 2h3c4-1 2-3 8-1 22 7 43 5 59-11 2-2 5-4 7-7-2 0-2 0-4 1-14 4-28-1-42-4-5-1-10-3-15-3h8c8 0 17 0 24-1 4 0 9-1 14-3 8-2 15-6 22-10l7-6c7-5 12-13 17-20-2 0-5 5-13 7q-13.5 3-27 3c-9 0-19 1-29 1l1-1c5-3 10-7 14-10l14-13c14-15 14-28 15-29 1-2 8-7 10-8 6-5 11-7 17-10l-2-2c-13-7-15-4-24-3 3-2 6-5 9-8-2 0-3 1-5 1s-4 1-6 1c8 0 19-11 20-16-4 2-5 2-11 2l2-1c1 0 1-1 2-1 4-2 6-4 9-8 15 0 23-15 25-16l-4 10c-3 5-5 12-9 19-1 2-4 7-4 10 2-1 5-2 7-3l11-9 14-17c8-11 18-28 18-43 0-8 0-15-10-20-2-1-5-3-8-3v-1c2 0 3-1 4-3l12-13c1-1 1-1 1-2l7-7c1-1 2-2 4-3v-1c-15-4-24 2-28 2l2-2 9-10c3-4 11-12 15-16 2-1 3-2 4-4-1 0-1 0-3-1-11-3-18 2-22 2l1-1c3-2 3-2 7-6 1-1 2-3 3-4 5-7 6-18 8-27 2-13 6-30-2-42-1-2-2-2-3-4l4-7c0-1 1-2 1-3-2 1-4 6-10 7 1-2 3-3 4-5l4-5 6-12c-3 2-6 5-10 5 1-2 3-3 4-5 2-3 9-14 9-17-10 7-19 6-20 7 0-2 2-2 3-3 8-10 4-22 8-29 1-1 2-2 3-4-3 1-6 3-9 5 1-2 4-5 6-13 1-6 2-11 2-18-1 1-1 1-1 2-1 3-2 6-4 8-1 2-2 3-4 4s-3 2-4 4c1-3 6-10 8-26 1-8 1-21-2-28l-1-1c-1 5-1 7-4 11-2 2-5 6-7 8 1-5 3-8 3-15-2 1-4 6-10 8 2-3 6-5 10-14 2-6 0-4 7-10 2-1 3-2 5-4l8-6c1-1 1 0 1-1h-21c0-2 0-1 1-2 2-3 3-11 7-18-2 0-2 1-4 2-2 2-7 8-9 10l3-6c2-8 1-9 7-17 1-1 1-2 2-3-3 0-4 2-6 4 1-7 1-15 2-22 0-3 1-4 2-6-4 0-8 2-11 3-2 1-3 2-4 3l-2 3v1-12c-3 2-3 9-7 11 0-3 1-4 0-8-1-3-1-5-2-7q-1.5-6 0-12v-3c0-1 0-1-1-1-2 2-3 4-4 6v1l-1 1c0-6-1-10-2-14-1-7 0-9 0-15-4 1-5 10-7 13 1-15-1-11-3-25-1-4 0-5 0-9-2 1-4 10-4 13v-4c0-6-4-11-4-17v-9c-3 1-3 6-5 9 0-5-2-7-3-11-1-6 1-8 1-13-3 2-5 7-5 11l-1-2q-1.5-6-6-12c0-1-1-1-1-2-9-16-7-20-9-23-2 1-5 6-6 9-2 3-3 8-3 12 0-12-14-28-15-40-4 2-6 8-8 12-2 5-2 10-2 18l-1-2c-4-11-12-22-12-35-2 0-3 3-4 4-3 6-6 11-6 19l-3-5-3-6c-3-5-6-10-9-14-1-1-1-2-2-3-1-2-3-3-4-5l-12-13-1-1c-2-1-3-3-5-5l-2-2-2-2c-6-6-13-11-20-17-2-2-3-4-5-5l1 14c0 10 3 19 7 27l1 3c0 1 1 2 1 2 1 1 1 1 2 3-2 0-1 0-3-1-8-5-19-6-28-7-4 0-19 1-22 2 1 0 0 0 1 1l8 4c2 1 3 2 5 2l9 5c2 1 3 2 4 3 10 7 15 10 23 19 3 3 12 13 12 17-2 0-4 1-5 1l-4 1c-1 1-1 0-1 1 5 1 8 2 11 5 4 3 7 6 10 10l2 2 2 2c3 3 7 6 11 7h1l1 1h-4l15 13c-4 0-1-1-11-1 1 2 0 1 2 2 1 1 2 1 2 2 3 4 5 9 9 13 1 1 2 1 3 2-4-1-6-2-10-2 1 2 4 2 9 9 1 2 2 4 4 6 3 5 3 3 5 5-2 0-3-1-5-2-3-1-3-1-6-1 2 3 6 3 13 15 1 2 2 4 4 6-9-1-17-11-19-11 0 9 1 14 4 22 1 3 6 10 8 12l3 3c-4 0-9-4-12-6 0 3 8 14 11 17 4 4 6 4 8 6-6 0-9-4-12-6 1 4 7 13 11 16l5 4c-2 0-4-1-5-1l-5-2c1 3 11 16 13 17l11 8c-7 0-12-10-20-10l5 5c4 4 12 14 12 20l-5-8c-4-5-9-10-14-14-3-2-6-4-11-4 1 2 2 3 3 6 5 10 6 25 9 35 1 5 3 8 6 12 0 2-1 3-1 4-6 14 0 34 6 47l9 20c-5 0-8-5-10-7 0 6 5 18 7 21-2 0-4-2-5-3l-4-4c0 7 3 18 7 24 1 1 1 2 2 3-5 0-8-6-10-7 1 8 4 20 8 27 1 1 1 0 1 2-3-1-6-5-8-7l-4-7c-1-2 0-1-2-2l2 14c1 7 4 11 4 12-2-1-3-2-4-3s-1-1-2-1c-4-3-8-4-14-4l3 6c1 3 2 4 3 7 2 5 4 10 5 15 1 6-1 6-4 10l-15 25c-1 1-1 2-2 3-5 9-9 19-11 29-1 4 0 8 1 13l2 4c-3-2-2-3-4-3 0 2-1 4-1 6-1 4-1 10-1 14 0 2 1 4 1 6-5-1-7-10-7-11-1-2 1-1-1-2l-3 14c0 2-1 5-1 7 0 3 1 5 1 8-6-7-6-13-7-15-1 4-4 16-4 21 0 2 1 6 1 8-2-1-2-4-3-6-1-3-1-4-1-9-3 2-2 14-2 17 0-2-1-5-2-8-3-16 1-21 1-25-2 0-2 1-3 2l-6 6-1 1-4 5c-3 4-4 6-7 11-6 13-5 26-2 40-7-3-17 0-24 2-2 1-5 2-7 3-9 4-27 13-36 18-10 6-20 12-19 26 0 3 1 6 2 8 0 2-2 4-2 7l-1-2c-2 1-7 8-9 10s-2 4-3 6c-1 3-1 4-1 8-2-1-3-5-3-7l7-10c9-13 9-24 9-40-1 0-2 3-4 5l-6 8c-1 1-1 1-2 3l-5 5c-6 4-10 8-17 10-2 1-5 2-8 2l4-7c3-5 7-13 7-20 0-9 1-3 0-14 0-3-1-5-1-7-1 1-3 4-5 7-5 7-16 13-24 19-6 5-8 6-12 12-6 6-16 24-16 31-2-1-1 0-1-3 0-1-1-2-1-3-6-11-22-16-34-14-3 0-4 1-7 2-5-9-25-14-37-8-2 1-3 2-4 3-1-2-6-4-9-5-8-2-17-1-24 3-3 2-6 4-8 7-2-1-3-1-6-2-10-2-23 1-31 9-3 3-5 7-6 11-1-1-1-2-2-5-1-2-1-3-2-6-2-4-3-7-5-11-3-5-6-9-10-13l-4-4-2-2c-7-5-16-11-20-15l-2-2-2-2c-2-2-6-7-6-9h-1c0 6-3 16 0 28 1 4 3 7 4 11 2 3 5 8 6 9-2 0-6-1-7-2l-6-3c-6-3-9-5-13-9l-4-5c-2-3-9-10-10-14-1 1-1 1-1 4 0 6 0 8 1 13 2 10 5 19 11 27l4 5c1 1 0 2 0 4l-2 3c0-2-1-6-2-8-1-3-3-6-5-9-1-2-5-6-7-7v2c-2-8-4-2-2-10 2-9 1-15-4-21l-1-1c-1-1-1-1-3-2-7-6-11-7-19-11-5-3-26-13-30-15-5-2-11-5-18-5-4 0-6 1-9 1l2-10c2-12 0-19-4-30-3-8-17-24-21-25 0 4 4 12 1 26l-2 7c0-3 1-15-2-17 0 3 0 5-1 8l-1 2c-1 2-1 3-2 4 0-10 1-10-2-22-1-3-1-5-2-6 0 5-3 13-6 15 1-7 2-6 0-15l-2-10v-2c0-1 0 0-1-1-1 5-3 10-8 13 2-8 3-11 1-20 0-2-1-5-1-7-2 1-2 2-4 3 0-2 1-2 1-3 6-16-9-43-17-55l-11-18c-1-2-3-3-2-7 1-6 4-14 6-19 1-1 1-2 2-4l4-6c-6 0-11 3-16 6-2 1-3 3-5 3 0-1 0-1 1-3 1-1 1-2 1-3 2-6 4-15 4-21-1 1-8 15-14 17 3-4 5-8 7-13 1-4 3-13 3-17-1 1-5 7-10 7 6-10 7-17 9-27-3 2-4 7-9 8 3-5 7-15 7-21-3 2-5 6-10 7 1-1 1-3 2-4l4-8c8-16 15-38 9-55-1-2-1-3-2-4 1-2 2-3 3-5 3-9 3-12 5-21 4-22 8-22 9-27-10 0-23 14-28 22l-1 1-1 1c1-9 17-23 17-24-7 0-13 10-20 10 1-1 4-2 7-5 6-5 7-6 12-13 1-2 4-6 5-8-1 1-3 1-5 2-1 1-4 1-5 1l2-2c5-4 13-13 13-18-2 1-3 3-5 4s-5 2-7 2l6-4c4-3 12-15 13-18-1 0-2 1-3 2s-2 1-3 1c-2 1-4 2-6 2l4-3c7-6 11-19 12-28l1-6c-2 0-7 5-9 7s-7 5-11 5c4-6 8-12 12-16l5-4c-3 0-4 0-6 1-1 0-2 0-3 1-1 0-1 1-3 1l2-2c4-3 6-10 10-13 2-2 4-2 5-4-6 0-7 1-10 1 2-3 3-2 7-10 6-10 9-8 7-9-4-1-7 1-10 1l6-5c2-2 0-1 5-5l4-3h-4l10-6c9-7 10-17 27-21-2-2-8-3-10-3 0-2 1-3 2-4 1-2 2-3 3-4s1-1 1-2l3-4c3-3 2-3 7-7l10-8c10-8 22-14 33-19l2-1c-4-1-9-1-14-2-10-1-25 1-34 6-2 1-4 2-5 3 6-10 11-23 12-35 0-5 1-10 1-15-2 0-3 3-5 4-1 1-3 3-5 4l-2 2-17 15c-3 2-11 11-14 14-1 1-1 1-2 3l-8 10c-4 6-9 14-12 20-1 1-1 2-1 3-1 1-1 2-2 3 0-7-3-13-6-19-1-2-2-4-4-5 0 10-8 25-13 36l-1 1c0-8 0-11-2-18-1-4-5-11-8-13 0 5-3 11-5 15-4 8-10 16-10 25 0-6-5-18-10-21 0 4-2 8-3 11-2 7-7 13-10 19l-4 10c0-6-2-10-5-12 0 4 2 8 1 12s-3 7-3 11c0-3-2-8-4-9 0 24-4 12-4 29 0-3-2-11-4-12 0 3 1 5 0 9-1 8-4 12-4 20v4c-2-3-3-7-5-11-1-1-1-2-3-3 3 12-1 18-1 29-2-3-2-8-6-10 0 7 2 8 0 16-1 3-2 7-2 11v4l-3-6-3-6v13c-3-3-2-5-6-8-2-2-8-3-11-3 2 4 3 12 3 17v12c-2-1-3-4-6-4 0 1 1 1 2 3 6 8 5 13 8 21 1 1 1 2 1 3" class="fil3"/><path d="M1096 1076c0-2 1-5 3-5h396c7 0 11 7 8 7h-403c-2 0-4 0-4-2m10-15h382c2 0 4 4 5 6h-391c0-3 1-6 4-6m299-32h49c1 0 5 5 6 6 2 2 4 4 5 7l11 14h-90l7-10c1-1 1-2 2-3 2-2 3-4 5-7 1-2 4-7 5-7m-269-1h48c1 0 4 4 5 6l15 22h-88c0-2 14-21 16-25 1-1 2-3 3-3zm191 11h37c5 0 4 0 7 2l5 5c2 2 3 3 5 4l4 5h-42c-1-3-12-14-14-17zm-67 0h62c2 3 5 6 8 9 1 2 2 3 4 4 1 2 3 3 4 5h-63c-3-5-7-9-10-13-1-2-2-3-3-5zm-63 0h58l14 18h-60c0-2-10-15-12-18m-8-12v-4h21c1 0 3 4 5 6 1 2 4 5 4 7h-24c-2-3-6-7-6-9m217-30h50v28h-50zm-269-1h48v29h-48zm203 27h32c-2 4-8 12-9 14h-12c0-2-9-12-11-14m-60 0h55c3 4 8 9 10 12h-52c-2 0-2-1-3-2l-9-10zm-64 0h56c3 0 2 0 4 1l10 11h-63c-2-4-5-8-7-12m-27-14h39c1 0 4 4 5 5 2 2 3 3 4 6h-48v-10zm150-6h29v16h-29zm-41 6h21c3 0 3 1 6 4 2 2 4 4 5 6h-21c-5 0-4-1-9-7-1-1-2-2-2-3m-63 0h58c2 4 6 6 8 10h-58c-2-3-6-7-8-10m-46-13h3c2 0 3 3 3 4 1 2 2 3 3 5h-9zm66 0h53c2 0 8 7 9 9h-55c-2-3-6-7-7-9m-58 0h50c2 0 8 7 9 9h-54c-2-3-3-6-5-9m204-7c0-2 0-5 3-5h52c5 0 4 8 1 8h-54c-2 0-2-2-2-3m-42-6c1 1 2 1 3 2l5 5c2 2 13 11 13 13 0 11 1 9-3 13-3 3-2 3-6 3 0-22 2-15-8-24l-4-4c-1-1-1-1-1-3v-4zm-32-10h27c1 0 1 0 1 1v15h-28zm-144 19h-48c-4 0-3-5-2-8 1-1 2-1 4-1h47c7 0 7 9 0 9zm183-9c8 0 10-1 13 2 1 2 1 1 1 7-6 0-5 0-12-7zm-93 0h20c4 0 3 1 6 4 2 2 4 3 5 5h-20c-5 0-4-1-6-4zm-31 0h26c1 2 7 7 7 9h-21c-5 0-5 0-7-3-2-2-4-4-5-6m-29 0h20c4 0 3 0 6 4 1 2 3 4 5 5h-25c0-2-5-7-6-9m-23 0h18l6 9h-23c2-4 1-6-1-9m211-7c0-2 1-4 3-4h50c5 0 7 8-2 8h-45c-4 0-6-1-6-4m-219 4h-47c-5 0-5-8 0-8h48c5 0 6 8-1 8m194-1h-17c-2-3-1 0-1-7h17c2 0 3 2 3 3-1 1-2 2-2 4m-186-7h34c3 0 4 2 6 6h-40zm41 0h48c4 0 4-1 6 2l2 2 2 2h-48c-6 0-5 1-8-4-1-1-1-1-2-3zm58-50c2 1 2 1 3 3 1 1 3 2 3 3 1 2 0 9 0 12 4 2 8 6 12 8v16c4 2 8 7 12 9v16c0 4 5 6 8 9l4 4c1 1 1 0 1 2v10c0 2-1 2-1 3-2 0-1-1-2-2l-39-43c-2-3-2-2-2-6v-44zm115-36h50v82h-50zm-191-12h61v94h-61zm-79 12h50v82h-50zm179 74v-13h29v14h-27c-1 0-1 0-1-1zm-12-32h28v9h-28zm-8-28h15v13h-15zm22 13h-4v-15h5v13c0 1 0 1-1 1zm-30-1v-13h5v15h-4c-1 0-1 0-1-1zm24-18h1v-1c-1-2 0 2 0-1 3 0 7-1 10 0 0 3-2 2-8 2l-3-1zm-25-2c4 0 8-1 10 1-1 2-1 1-7 1h-2v-1zm-298-5c0-11 1-18 6-27 2-3 9-14 12-16l3 6c5 12 14 30 21 40l14 21c12 18 12 41-4 56-6 6-7 7-13 12l-10 6 1-4c1-2 1-3 1-5 4-22-5-34-16-50-8-12-16-24-16-40zm568 100c-8-4-17-14-22-20-7-9-13-19-13-32 0-12 8-19 14-29l7-10c5-8 11-18 16-27 4-7 8-16 10-24 3 1 10 10 12 13 4 7 7 15 8 23 2 11-1 26-8 35-6 9-11 13-16 21-2 3-3 5-4 8-5 10-8 25-5 36 0 2 1 3 1 5zm-245-101v3c-1-1 0 1 0-1v-1zm-25 0v2c-1-1 0 0 0-1zm26 3h4c-1-2-2-1-2-5h7c1 1 1 2 1 4-3 2-7 2-9 1s0 0-1-1zm-25 0h3c-1-2-2-2-2-5h6c2 1 3 3 2 4-2 1-3 0-5 0h-2l-2-1zm0-3v-1zm31-5c0 1 0 1 1 2h-2c0-2 0-1 1-2m-26 0c1 1 1 1 1 2h-3zm-104 1h-52c-6 0-5-11-1-11h55c4 0 5 11-1 11zm270 0h-53c-5 0-5-11 0-11h53c2 0 2 0 3 2 3 5-1 10-3 10zm-242-11h61zm-10-24c1 1 1 1 2 6s4 16 4 19v96h-20v-78c0-8 1-3 4-8 1-3 2-9 0-12-1-1-2-2-3-2 2-3 13-19 14-21zm190 4h73c0 2-6 10-8 12-1 1-2 4-3 4h-50c-1 0-1-1-2-2l-4-6c-2-3-4-6-5-8zm-118 15h-62c0-4-3-10-3-15 5 0 2 0 8 4 13 10 23-4 26-4 7 0 5 0 8 2 2 3 7 5 11 5 5 0 12-4 13-8h4l-4 15zm-152-15h73l-7 11c-1 2-3 4-3 6h-52l-10-17zm301-56h11v52h-11zm-269 0h11v52h-11zm139-9c22 0 48 13 64 29 10 10 17 17 24 32h-13c0 3 9 16 11 19-2 1-2 0-3 2-3 4 0 11 2 14 1 1 2 1 2 3v80c0 1-2 3-3 5h-18c-5 0-4 1-7-2l-5-4v-17c-2-1-4-3-6-5s-4-3-6-4v-11c-2-1-12-9-14-10v-18c0-5 1-3 1-5 1-2-1 0 1-4 2-5-6-6-7-11l-5 6c-1 1-1 0-1 1-3 2-1 5 0 5v1c0 1-1 0 0 3 1 2 1 1 1 4h-15v-2c1-2 2-1 2-4v-1c-1-2 3-3 0-6l-1-1c-2-2 0-1-3-3l-2-2c-1 2-2 3-3 4s-7 5-2 8c-1 2-1 1-1 4 1 0 1 0 1 1v71h-4v-96l5-19c1-2 2-5 2-6h-10c-1 0-1 0-3 3-14 15-22-3-24-3h-6c-2 0-12 15-25 6-2-2-4-3-5-6h-23c1-2 3-4 4-6 2-2 3-4 4-6 4-6 9-11 14-16l3-3 14-11c15-10 35-15 54-17 3 0 7-1 10-1zm229 130v-5c0-7-3-15-6-20-2-4-8-13-12-14 0-2 3-10 4-12l22-55c1-2 1-4 2-6l10-25c3 1 13 13 15 17 12 17 9 36 2 55-6 15-10 21-17 34l-7 11c-2 4-5 7-7 10l-7 10zm-518-93c0-15 5-26 15-37 2-2 6-7 8-8l17 43c1 2 2 4 3 7l20 49c-4 3-10 11-12 16-3 6-5 15-5 23l-7-10c-2-3-5-7-7-10-8-13-12-20-19-33-6-11-12-27-12-40zm413-42v66h-10v-75h45v75h-10v-66c0-1 0-1-1-1h-23c-1 0-1 0-1 1m-270 66h-12v-75h47v75h-10v-68h-25zm40-10v-65h217v71l-1-1c-9-17-18-29-33-40-8-6-11-8-20-13-5-3-10-4-16-6-25-8-51-7-75-1-15 4-30 12-43 21-11 8-21 19-27 31-1 1-1 1-1 2l-1 2zm268-68h-319v-5h322v2c0 1-2 3-3 3m-334-17h344c4 0-2 10-6 10h-325c-5 0-13-4-13-9zm355-10c0 3-3 6-6 6h-355c-1 0-6-5-3-6h363zm-19 205v-17l11-40c4-14 12-39 15-53l28-99c0-2 2-5 2-7 2 0 3 1 6 1 0 4-19 66-22 76l-16 57c-3 9-5 18-8 27l-15 50c0 2 0 2-1 3zm-349-214h376c-1 3-4 4-8 4h-365c-5 0-7-4-4-4zm-58-1c3 0 5-1 7-2 1 4 2 8 4 13l11 39c4 15 11 37 14 51 4 14 10 36 15 51 3 9 9 29 11 39 1 4 0 12 0 16-1-1-1 0-1-3 0-2 0-2-1-3l-14-45c-5-17-11-35-15-52l-27-90c-1-2-1-4-2-7-1-2-2-4-2-7m232-28h28l21 1c2 0 5 0 7 1 7 1 7 0 13 3l41 20h-209c2-2 8-4 10-5l11-5c4-2 21-11 24-11 3-1 19-1 25-2 7-1 24-2 30-2zm129-58h6v81h-6zm-249 0h6v81h-6zm-11 0h6v81h-6zm-10 0h7v81h-7zm296 81h-5v-81h7v80c0 1 0 1-1 1zm-16-1v-80h7v81h-5c-1 0-1 0-1-1zm-375 3c-8 0-8-8-4-10 0 6 0 8 6 8 5 0 8-2 11-4 0 3-1 3-5 5-2 1-5 2-8 2zm467-9c0 8 11 7 16 7-1 1-1 1-1 2h-5c-5 0-13-3-13-8 0-1 0-5 3-5 2 0 0 1 0 3zm-286-19v-3h7l14-1h7l42-1 44 3c4 0 6-1 6 2 0 2-3 1-6 1-9 0-29-2-37-2h-8c-15 0-29 1-43 1l-13 1h-14zm0-6c1-2 0-1 5-2 2 0 5 0 7-1 24-2 48-3 72-1l31 2c1 0 5 0 6 1 0 0 1 0 0 1 0 1 1 1-4 0l-25-2h-7c-14-1-24 0-38 0h-14c-8 1-20 1-27 2h-7zm0-4v-1c2 0 5 0 8-1l58-3c8 0 37 1 47 3 2 0 5 1 7 1v1c-6 0-23-2-31-2h-7c-2 0-3-1-6 0h-19c-10 0-19 1-29 1l-14 1c-5 0-9 1-14 1zm-18-39c0-26 19-38 40-46 6-3 11-5 16-9l5-4c2-1 3-3 4-4s3-3 4-5c4 0 14-1 18 0 1 0 1 1 1 2 1 1 1 2 2 2 13 14 38 19 50 30 10 10 17 18 17 34 0 13-6 24-15 32-3 2-3 2-5 2l-18-2c-6-1-13-1-19-1l-39-1c-3 0-4 1-7 0-4 0-9 1-13 1s-9 1-12 1c-2 0-4 1-6 1s-4 1-6 1c-2-3-7-6-11-15-3-6-6-13-6-21zm-79-17c0-3 3-6 6-6h34c2 0 3 1 4 1 4 3 3 10-5 10h-32c-4 0-7-2-7-6zm308 6h-31c-7 0-7-3-7-7 0-3 3-5 6-5h34c6 0 10 11-2 11zm-32-15c1-1 0-1 1-1h30c1 0 1 0 1 1-1 1 0 1-1 1h-30c-1 0-1 0-1-1m-270 0c3-1 28 0 33 0 0 1 0 2-1 2h-29c-3 0-2-1-2-1zm-7-13c0-5 1-7 4-10 1-1 5-5 7-5h25c5 0 16 12 9 21-1 1-4 3-6 3h-31c-4 0-8-5-8-10zm281-15h26c2 0 10 6 10 14 0 5-4 10-9 10h-30c-8 0-12-12-4-20 1-1 4-4 7-4m3-6h19c2 0 2 2 3 3h-26c0-2 2-3 4-3m-270 0h19q3 0 3 3h-26q0-3 3-3zm279-11 4 4c2 2 2 1 4 4h-15c3-5 4-3 7-8m-270 0h1c1 4 6 4 7 8h-14c1-3 6-4 7-8zm122-4c0-2 1-4 3-4h20c3 0 3 8 0 8h-20c-2 0-3-2-3-4m22-8h-19c-2 0-5-4-5-10 0-4 4-8 6-11s7-6 7-10c2 1 3 3 4 5l9 9c6 9-1 16-3 16zm-29-9c0 7 4 8 5 12-5 1-3 11 0 12 0 2 0 1-1 3l-2 2c-7 7-17 12-26 16-4 2-8 3-12 5-7 3-15 9-19 15-12 16-12 37-2 54 3 5 6 8 10 12 2 2 0 0 1 2s1 1 1 3c-2 1-2 3 0 4-1 2-1 1-1 4 0 2 1 2 2 4-3 1-9 4-12 6-5 2-34 18-37 18h-2v-83c3-1 4-1 5-3 6-10-4-16-4-16 6-2 8-15 5-22-2-4-5-6-9-8-2-1-1-3-3-6-5-8-15-7-15-21-2 3 0 8-8 14l-6 5s-2 2-2 3c-1 1-1 3-1 5-10 0-16 19-7 28 1 1 2 1 3 3-9 2-7 18 0 19v83h-55c0 3 2 6 4 8s4 4 7 5c-2 5 3 10 8 10 0 6 5 10 10 12 1 0 2 0 2 2v81h-8c2 3 12 18 12 21-2 0-2 1-3 3-2 3-2 12 2 13v27l-10-34c-1-4-2-7-3-11s-2-7-3-11l-10-35-18-63c-1-2-1-4-2-6l-3-12c-1-3-2-8-3-11 4-2 7-4 7-9 0-15-26-12-31-1-2 4-1 8 1 11 2 4 5 4 10 4 0 5 6 12-5 26-5 6-11 12-17 18-5 5-10 10-14 16l-5 8c-4 8-6 15-6 25 0 6 2 11 3 16-2 2-6 6-7 8-9 12-14 21-14 39 0 14 9 31 15 40 10 15 17 20 17 40 0 10-3 22-3 27 19-10 41-25 45-48 1-5 1-9 0-14 0-4-1-9-1-14 0-20 8-29 21-42l5-5 5-6c2 3 3 8 4 12l4 12c1 4 2 8 4 12 1 4 2 8 4 12l9 30c1 5 4 10 4 15 0 2 0 2 1 4-6 4-3 9 0 13-2 3-4 5-4 10 0 3 4 6 4 8v29s-15 26-16 27h-3c-3 1-7 4-7 7v3c-4 0-7 2-7 6 0 5 9 12 13 15 5 4 2 3 11 3l393-1h7c2 0 4-1 4-3 0-5-3-8-7-10-3-1-4 0-5-3-1-2-2-4-3-5-3-2-5-2-9-2 0-1-1-2-2-3l-19-24c-1-1-2-2-2-3-2-2-1-27-1-31 5-1 7-13 1-16 2-4 4-7 1-11l-3-2c1-3 25-83 26-88 1-3 4-10 4-13h1c1 6 14 14 19 19 9 11 13 23 10 38-1 6-1 7-1 14 0 11 5 20 11 28s12 14 19 20c3 3 12 9 17 10 0-3-4-15-4-28 0-17 10-28 17-38 9-14 16-23 16-44 0-15-7-27-15-37-3-3-6-6-8-9 2-10 3-12 3-22 0-18-14-32-25-43l-8-8c-5-5-12-13-14-21-1-8 1-8 2-14 11 0 14-16 5-20-3-1-7-2-11-3-4 0-8-1-11 2-5 4-7 12-2 17 1 1 1 1 2 1 0 4-5 19-6 23l-6 23-3 12-29 104c-1 3-5 21-7 23 0-2 0-26 2-29l1-1c2-3 3-8 1-12-1-2-1-2-2-3 1-2 13-20 13-23h-14v-74c0-1 4-2 4-10 6 0 9-7 9-12 5 0 9-5 9-10 4 0 6-2 8-5 1-1 5-9 2-9h-47v-83c0-2 3-2 4-4 4-5 2-16-5-17 3-4 7-3 7-16 0-7-6-12-11-14 0-11-16-12-16-27 0 13-9 13-13 21-3 5 1 4-5 8-11 7-11 20-1 28-8 1-10 14-3 19 2 1-1-1 1 0 1 1 1-1 1 1v83c-3 0-4-2-7-3l-12-6c-6-3-28-14-31-15 0-2 1-2 1-4s-1-3-1-4c3-1 1-3 1-4 0-2 1-1 0-4 9-6 19-23 19-35 0-13-2-20-10-30-7-10-19-16-30-21l-10-5c-6-3-12-6-17-11-2-2-2-2-4-5 5-4 5-11 1-12 4-8 12-16-4-28-4-3-9-8-10-14-1 1-2 5-7 11-5 5-12 10-12 18zm18-130v27h-4c0-5-1-10-1-14 0-3 1-3-2-4-2 1-1 6 0 8 0 3 1 6 1 9h-3l-4-20c0-2 0-6-3-6s-1 4-1 5c1 4 4 17 4 21-1 0-3 0-4 1 0-2-4-14-5-17-3 1-1 4 0 8 1 3 2 7 3 9l-3 1-5-12c-1-4-4-8-5-12-5 0-3 2-2 5l6 13c1 2 3 5 3 7-2 0-3 1-4 1-1-2-6-14-8-15s0 0-1 0-2 0 0 4c2 3 6 9 6 13-2 0-2 1-4 1l-14-19c-1-1-1-2-3-2-3 2-2 1 6 13 2 3 7 8 7 11-1 0-2 1-3 2-4-3-8-12-12-13-1 2-1 2 1 3 1 1 2 2 3 4 2 2 5 5 6 7-1 1-2 2-3 2-2 0-9-7-11-9s-8-8-11-9l-2 2c2 3 13 13 17 16l6 6 5-4c18-13 41-18 63-14 9 2 17 5 25 10 2 1 3 2 5 4 2 1 3 3 5 4 3-2 10-10 14-13l3-3c2-2 5-4 5-6-1-1-1-1-2-1s-13 12-15 13-4 4-5 5c-1-1-3-2-3-3 1-1 2-3 3-3l6-7c1-1 3-3 1-4s-5 5-6 6c-2 2-4 5-6 7l-4-2c2-4 8-11 11-16 1-1 4-4 4-6s0-1-1-1h-1c-2 1-3 3-4 5-2 2-11 15-12 17-2 0-3-1-4-2 1-3 3-5 4-8 1-2 1-3 2-4 1-2 2-2 0-4-2 1-3 5-5 7-5 8-2 8-8 7 0-4 6-15 8-19 1-2 4-6-1-6-2 0-3 4-3 5l-5 12-3 6c-1 0-3-1-4-1 1-4 5-12 5-16v-1c-2 0-2 1-2 3-5 15-3 13-8 12 0-2 1-4 1-7l3-14c1-3 2-6-1-6-2 0-3 10-4 12-1 4-3 9-3 13h-3c0-5 2-14 1-18h-2c-1 5-1 12-1 17h-4v-27c-2 0-2-1-3 0z" class="fil3"/><path d="M1222 915c0-1 0-1 1-2 1 0 2 1 2 2v43h37c2 0 2-1 2-4v-38c0-3 0-3 1-4 1 0 2 0 2 2v46h-46v-46zm42-6 2-2 2 2-2 2-3-2zm-40-2 2 2-2 2-2-2zm2-1c1-1 2-1 3-1 0-12 4-12 10-15 2-1 4-2 5-3 11 7 16 3 16 18 1 1 2 2 4 2-1 1-2 2-4 3l2 2c-1 1-2 2-2 3v42h-33v-42c0-2-1-1-2-3 1-1 2-2 3-2-1-2-2-2-3-3zm0-3c-1 0-2 1-2 1-1-1-1-1-1-2v-20h46v20c0 1-1 3-3 2-2-2 3-10-13-16-3-1-5-3-8-4-2 1-4 2-6 4-9 4-13 6-13 16zm-7 0c0 1 2 3 3 4-2 1-2 1-3 3l2 3c-1 1-2 2-2 3v48c0 1 0 1 1 1h51v-50c0-1-1-2-2-3 1-2 1-1 2-3-2-1-1-1-3-2 1-3 3-1 3-4v-24c0-1 0-1-1-1h-51zm-26 380c0 5 1 7 7 9 8 2 8-1 11-2 0 3 1 4 3 5 10 6 42 10 49 7 1 3 3 3 6 3s4-1 6-2c2 1 9 8 11 0 1 2 2 3 5 4 4 1 12 1 14-2 5-5 2-17-4-19 0 2-1 4-1 6 0 1 4 3 4 7-2 0-12 2-15 0-2-2-1-3-2-5-2 1-1 0-2 3-1 2-1 2-2 3-2-1-4-1-6-2 0-2 1-3 0-4-2 1-2 3-4 4-3 2-4 1-7 1 1-2 1-2 1-5-5 1 0 4-13 4-11 0-25-2-34-6-10-3-8-4-7-9-5 0 0 4-9 4-2 0-7-2-8-3-2-2-1-6-1-8 1-6 3-12 3-18 0-2 1-4 0-3 0 0-3 2-3 3-1 1-1 7-1 9-1 5-3 14-3 18zm198-18h2c0 2 0 1-1 2-3 2-4-2-1-2m2 9c3 0 4-3 4-5 7 5-8 11-14 13-2 1-3 1-5 2l-10 3c-3 1-3 0-5 0 0 0 4-10-4-10-7 0-11 3-11 10 0 4 2-2 8 1-4 5-26 9-31 8s-5-6-6-13c-1-3-1-5-2-8s-2-5-2-8c-2 1-1 0-2 2-1 4 0 5 2 12 3 12 2 23 13 23 12 0 28-5 32-11 2 1 3 2 7 2 5 0 18-5 22-7 2-1 3-2 5-2 3-1 6-4 9-6l1-2c4-11-15-28-17-17v6c1 4 3 7 7 7zm-117-685-2 3c-5 9-16 14-25 19l-11 6c-5 3-9 6-12 10-10 13-9 32 2 46 1 2 7 8 9 9 1 0 8-1 10-1-1-2-3-3-5-5-5-5-9-10-11-18-3-15 0-24 8-33l2-2c9-7 19-9 28-21 2-3 6-9 6-13zm-22-194c1 2 1 2 2 3-2 0-3-1-5-1 1-2 1-2 3-2m37-20c2 1 2 2 3 4-3 0-3-1-5-1 0-2 1-2 2-2zm-22 17c7 0 9 1 14 1l-7 2c-4 1-13 2-17 0-2-1-4-4-6-4s-4 4-6 6c-3 2-7 2-9 1-5-2-6-12-9-14-2 3 2 9 3 12-1 1-2 2-4 3-8 3-10-1-10 2s1 5 3 5c5 0 11-3 11-7 3 2 2 5 9 5q4.5 0 6-3c1 1 1 1 3 2s3 1 6 1c1 0 1-1 2-2 7 2 17 0 23-3 9-4 7-3 16-3 1 0 3-3 3-4l-19-2c-5-1-4 0-6-2 2 0 4-1 5-2 2-1 3-2 4-4 5 1 10 7 10-3 0-2-4-10-8-5s-2 8-15 13c-3 1-5 3-5 7zm86 387c5 0 20 9 25 13 12 9 16 17 18 19v-28c0-5 0-4-5-4zv1zm-159 32c1-1 3-3 4-5 10-12 21-20 36-26 2-1 2 0 3-2h-43v32z" class="fil3"/><path d="M1245 648c0 14 5 21 12 31 2-1 6 0 9 0 0-6-27-26-3-55 2-2 6-6 8-9 3-4 4-6 5-12-1 1-3 4-4 5-3 4-9 8-12 12-1 1-1 2-2 2-5 5-12 15-12 26zm55-59c0 1 5 6 6 7l10 9c2 1 4 3 6 4l17 12c1 1 1 1 3 2 4 4 7 6 10 14 4 12-1 27-8 38-1 2-3 4-4 6h6c4-6 4-5 7-12 7-16 6-32-5-45-2-2-9-7-11-9-13-9-17-9-30-19-2-2-6-5-7-7m-230-122c0-2 3-6 4-7 1 1 1 2 1 3-1 2-3 3-5 4m30-18c-1 2-4 3-7 3-6 0-11-10-16-13 0 6 1 6 4 9s6 5 6 8c0 2-4 11-10 5-3-3-7-10-9-11 0 4 1 5 2 7-3 5-6 9-3 15 5 0 8-3 8-8 2 1 8 7 12 0 2-2 1-5 1-9 9 5 19-5 8-14l-7-6c-2-1-3-4-5-4 0 7 4 8 10 13 2 1 3 2 4 4zm227-55h-7c1-2 5-3 8-3v3zm8 6c-6 0-5-6-4-12 0-2 1-4 1-6-3 1-3 4-3 7-7 0-20 10-7 11 3 0 4-1 6-3 0 8 4 9 9 9 4 0 5-4 7-5 5 9 12 7 15 3 3-5-1-15-1-23-6 2-1 16-1 21-5 1-10-3-10-7v-16c-4 1-3 9-3 12s1 9-7 9z" class="fil3"/><path d="M1308 604c0 5 9 15 12 19l5 6c8 11 9 20 4 33-2 5-5 9-9 13-1 1-3 3-3 4h8c5-7 7-9 10-19 5-17-1-30-14-41-4-3-8-7-11-11l-2-2-1-2zm-155-183c0-4 2-2 4-2v1c-1 0-3 1-4 1m32-19c0 3 0 1 1 3 0 1 1 1 1 2-3 1-4 1-6 0v-3c-3 1 0 2-3 6q-1.5 3-6 3v-5c-3 1 2 4-7 8-1 1-2 1-4 2-2-1-3-4-7-4-3 0-6 10 0 11 2 1 4-1 6-1 0 9-4 14-11 17-2 1-2 0-2 2 9 0 15-4 16-12 0-3-1-6-1-8 2 0 3-1 5-2s2-2 4-3c3-1 8-2 9-6 14 3 8-10 5-11v2zm-28 868c0 12 21 18 28 4 2-4 4-11 4-17 0-3-4 2-7 3 0 13 4 15-8 15-10 0-17-10-8-17 1-1 2-1 2-2-2 0-3 1-4 2-3 2-8 7-8 11zm283-846c4-1 3-1 7-1 0 2 0 3-1 4-1 0-4-1-5-1-1-1 0-1-1-2m27 19c-4 0-14-6-17-8s-2-5-1-9c0-2 1-3 1-5 0-1 2-7-1-3-1 1-1 1-1 3-4 0-6 0-9 2-9 6 2 8 2 8 1 0 2-1 4-1 0 5-3 7 7 12 12 7 15 7 21-7 1-3 2-5 3-7 2-4 1-4 5-6-1-2 0-3 0-6-5 1-4 3-5 5s-2 5-3 8l-5 11c-1 1-1 2-1 4zm-63-31v3h-4c0-2 0-1 2-2l3-1zm-12-29c0 2 2 4 4 5 3 1 2 0 4 6 2 4 4 14 4 15-2 1-4 3-6 4s-5-1-5 4c6 0 14 8 14-6 0-3-2 0 2-5 2-3 5-8 6-11s1-5 4-5v-7l-4 2c0 6-5 19-9 21 0-5-7-25-11-28-1 1-3 3-3 5m-113 227-5 13c-5 10-8 10-10 23-2 11 4 21 9 29 3 5 2 4 9 4-1-2-12-12-13-27 0-6-1-8 1-15l3-9c2-4 5-14 5-18zm226-146v3c-2 0-3-1-4-2 1 0 3-1 5-1zm-2-30c0 3 0 5 3 6 0 4 1 14 0 20-1 2 0 1-2 2l-6 1c-2 0 0 0-3-1-3 2-3 2-3 3 5 1 8 8 12 4 3-3 2-6 4-8 10-7 5-3 13-12 3-3 3-1 4-3l1-5h-3c-3 1-1 2-6 8-2 2-7 8-10 9l1-8c1-6 1-17-1-22-2 0-2 0-3 2-1 1-2 2-2 3zm-308 290 45-1c-3 0-16-4-16-8s4-6 6-8c-2 0-3 1-4 2l-13 6c-3 1-6 3-9 4l-7 3c-2 1-1 0-2 2" class="fil3"/><path d="M1311 647c0 11-4 20-10 28-1 1-2 2-2 4 6 0 5 0 7-4 6-8 9-16 9-28 0-15-11-18-13-35 0-1 0-2-1-3 0 19 10 23 10 37zm-42-141c0 4 14 2 19 2 3 0 2 0 3 1-2 1-18 1-22 1-6 0-5-6-6-9-1-1 0-1-1-1 0 1-1 3-1 4-1 1-1 1-3 1-3 0-3 3 0 3-2 7-9 7-14 7v1c3 0 10 4 14-4 2-4 0-3 4-7 0 8 7 7 12 7 3 0 14 0 17-1 4-1 3-7 0-7-7 0-15 2-19 0 3-5 10-2 11-8-5 1-13 5-13 10zm-147-101c1 0 2 1 3 2l14 19c1 1 2 2 2 3-3 11-16 15-19 4-1-2 0-3-1-4 0 4-1 6 2 10 6 11 21 4 21-8 0-5-12-19-15-23-1-2-1-2-1-5-3-1-3-2-6-3zm182 698c2 0 3 3 3 5-4 0-4 0-6-2 1-1 1-3 3-3m-7 5c0 5 8 6 11 6 0 3 1 7 3 10 2 2 1 2 2 2 5-9-2-4-2-17 0-10-6-16-11-7-1 1-3 5-3 7zm118-200c-1 5 0 29 0 36 0 5 4 3 5 3 1-5 0-30 0-37 0-3-3-2-5-1zm-256 2c0 7-1 32 0 37 1 0 5 2 5-3 0-7 1-31 0-36-2-1-5-1-5 1zm13 0c0 7-1 32 0 37 1 0 5 2 5-3v-33c0-5-5-4-5-1m147 211v3c0 5 9-6 11-17l4 10c1 2 4 7 6 8 1-1 2-4 2-5-5-7-5-6-9-16-1-2-1-5-3-6-1 1-2 4-3 6-2 6-2 7-5 12-1 1-3 4-3 5m109-211v35c0 3 5 3 5 0v-35c0-3-5-3-5 0m-283 0v35c0 3 5 3 5 0v-35c0-3-5-3-5 0m296 0v35c0 3 5 3 5 0v-35c0-3-5-3-5 0m-197 188c1 4 1-1 3 11 1 4 2 8 2 11-5 3-4 3-10 3-2 0-5-2-5-5s1-3 1-5c-2 0-1-1-2 1-3 5-4 14 8 14 4 0 10-4 10-8l-2-16c-1-4 0-2 0-5-1-2-2-1-2-4h-1c0 1-1 2-2 3m41 27c2 0 1 0 2-2 2-5-1-13-1-16 7-2 7-5 7-9v-1c-3 1-1 4-7 4-3 0-3-3-7-5-1 3-3 4-1 6 3 4 5 9 7 13 0 2 1 6 1 9zm118-516c0 4 2 5 3 7l14 1c-1-2-8-6-9-13-1-4 0-3 0-7-4 2-8 7-8 12m-270 0c0 4 1 7 5 7h11c-1-2 0 0-2-2-6-6-8-8-8-18-4 2-8 6-8 12zm285 667c3-5-7-20-10-25-1-2-1-3-2-4-1-2-4-7-5-9h-1c-2 8 3 12 7 20 2 3 3 6 5 9 1 2 4 8 5 9zm-115-766c1-1 3-2 4-3 0 4 0 3-4 3m19 2c-6 0-6-3-6-12-2 0-2 1-2 3v4c0 3 0 5-4 5-3 0-3-7-2-10-3 1-1-1-2 2-1 2-2 1-4 3-1 1-6 6-2 6 3 0 3 0 6-1 4 8 7 1 9 0 1 3 8 6 8-1 0-2-1-3-1-5-1-2-1-4-1-6-2 1-1 3-1 6 0 2 1 5 2 6m-119-104c0 6-5 14-9 16s-5 1-5 3c19 0 21-19 11-27-2-2-2-1-4-2v4c1 2 7 4 7 6m57 694c4 6 6 8 8 16 0 2 0 6 1 7 2 0 1-1 2-3 1-6 0-11-2-16-1-3-3-8-5-9l-3 5zm108-693c5-1 2-19 2-22-1-5 0-11-1-14-4 3-2 9-2 11 0 8 1 14 1 24zm-69 495h5v4h-5zm-3-1c0 11-2 9 10 9 2 0 1-3 1-9 0-2-4-1-10-1-1 0-1 0-1 1m-183-457c0-3-2-6-4-8-5-6-11-12-16-18-1-1 0-1-2-1 0 1 1 4 1 5l18 20c2 2 2 3 3 3zm362 6c5-1 10-16 13-22l3-8c-6 3-5 5-9 14-1 3-2 5-3 8zm-60-29c6-3 10-18 13-26l2-4c-5 1-6 8-9 14-1 3-2 5-3 8-1 2-3 7-3 8m-130 122c-1 1-6 7-7 8-3 5-1 7 1 11h7c-2-3-5-4-5-9s2-7 3-10zm-76 726c0 2 2 3 3 4 3-1 2-2 4-2 0 1 1 3 2 3 2-1 3-2 4-3 0-1-2-4-3-5l-4 2c-1-1-1-2-2-4-2 1-3 2-4 3zm-120-859c0-2 0-7 2-4 1 1-1 4-2 4m-1 1c-2 1-3 0-3 2v4h1v-3c2 0 2 0 3-1 6-3 5-11 1-11-3 0-2 5-2 9m284-45c1-1 1-2 2-2 1-1 2 0 3 1-1 2-2 2-5 2zm-2 0c-1 0-2-1-2-1-2 0-3 3-3 5l2-2c2 1 4 2 7 1 5-2 5-5 4-8-3-1-5 0-8 5m-254 20c1-2 2-2 2 1-2 0-1 0-2-1m-2 0c0 3 1 3 4 3 0 2-1 3-2 4 0 1-1 1-1 2-1 2-1 0-1 2 3-1 4-4 5-7 1-1 0-2 2-2 0-3-1-1-2-4s0-2-3-4c-1 1-3 1-3 5zm301 504c-1 3 0 4 0 9 0 3 5 3 5 0 0-7 1-12-5-9m-256 0v10c1 0 2 1 3 1 3-1 2-4 2-9 0-3-5-1-5-1zm13 1v8c0 3 5 2 5 0v-7c0-3-5-3-5 0zm-1-513c1 1 1 0 2 2h-3zm-3 1c0 3 0 4 4 4-2 4-5 7-5 8 2 0 4-2 5-4 1-1 1-2 2-3 1-2 1 0 2-2 0-2-1-1-2-4-2-7-6-2-6 0zm273 512v7c0 3 5 3 5 0v-7c0-3-5-3-5 0m-296 61v7c0 3 5 3 5 0 0-9 1-10-3-10-1 0-2 1-2 2zm0-61v7c0 3 5 3 5 0v-7c0-3-5-3-5 0m283 0v7c0 3 5 3 5 0v-7c0-3-5-3-5 0m-269 61v8c0 3 5 2 5 0 0-9 1-9-3-9-1 0-2 1-2 2zm13 0v8c0 3 5 2 5 0 0-9 1-9-3-9-1 0-2 1-2 2zm243 1v6c0 3 5 3 5 0 0-9 1-10-3-10-1 0-2 1-2 3zm-124-607c1 1 0 1 0 2-1 0-1 0-2-1 1-1 0-1 2-1m-4 2c0 2 1 2 3 2 0 2 0 1-1 2l-4 3c-2 1-1 2 0 2 2 0 3-1 5-2l3-3c2-1 1 1 2-1l-1-8c-4-1-6 3-6 5zm141 604v7c0 3 5 3 5 0 0-9 1-9-3-9-1 0-2 1-2 2m13 0v7c0 3 5 3 5 0 0-9 1-9-3-9-1 0-2 1-2 2m-114-584c2 0 2 0 2 2-3 0-2-1-2-2m-2 1c0 1 2 2 2 3-2 1-5 3-8 3v1c5 0 6-1 9-3 2-1 0 0 3 0 1-3 0 0 0-3s1-1 0-6c-4-1-6 2-6 4zm83 57v2c-3-1-1 0-4 0v1c10 0 8 4 12 1-2-3-6-1-6-6 2 0 2 0 2 2 3 0 3-1 2-4-2 0-8-1-8 2z" class="fil3"/><path d="M1292 491c0 2 1 0 0 3h2c-1 3 1 11 1 19h1c2-11-1-13-1-20 2 0 2 0 2-1-2-1-3 1-4-1 2-1 0 1 2 0s0-2 0-3q-3 0-3 3m176-37v4s-3-1-4 1c1 1 5 1 7 1 2 1 4 3 5-1-3 0-5-2-6-5 4 0 2 1 3 3 4-1 3-5-1-5-2 0-3 1-4 1zm-240-91c2-1 2-1 2 1-3-1-1-1-2-1m-2 2c0 2 1 2 3 2-1 3-5 4-5 7 1-1 1 0 3-1l2-2c4-4 1-4 4-4v-2c-2-1 0-3-3-5-2 1-3 2-3 5zm-6 0c2-1 2-1 2 1-2-1-1 0-2-1m1 4c-3 4-4 4-6 7 2 0 2 0 3-1 5-4 8-9 3-13-2 1-3 1-3 4q0 3 3 3m285 57c3 0 1-1 3 0 1 2 4 5 8 5 2 0 3-1 4-2-3 0-5-1-7-2-2-2-3-3-4-5-2 0-4 1-5 3zm-215-64c-2 0-1-1-1-3h-1c-1 4-1 4-4 4 0-4 1-1 0-3-2 2-3 6 0 6 2 0 2-1 3-1 2-1 1 0 3 0 3 0 4-3 3-7-4 1 1 4-3 4m123 15c3 0 2 0 3-1 3 4 7 0 7-4-2 0-2 1-2 3h-2c0-3 1-4-1-3-1 1-1 2-3 2-3 0-1-2 0-4-4 1-4 6-1 6zm-67-9c-3 0-3 0-3-3h-1c-1 3-1 3-4 3v-3c-4 2-3 6 0 6s2-1 4-1c0 0 6 3 6-6-2 1-2 1-2 4m-152 11c0 1 3 3-2 3 0-2 0-1-1-2-1 2 1 4-3 5-1-1-1-1-1-3h-1c0 3 0 5 2 5q3 0 3-3c7 0 5-6 3-8v2zm-124 51-1 1c-3 0-1-1-3-1 0 2 2 4 0 6-2 0-1-1-2-2h-1c0 7 6 6 6 0 4 0 4-5 0-8 0 4 1 2 1 4m182-63c0 1 1 2-1 2-3 0 0-2-3-2 0 4-2 4-4 4l-1-3c-2 8 4 6 5 3 5 1 6-1 5-7h-1v2zm74 128c0 7 1 11 1 20h1c1-7 1 1 0-13 0-3-1-6-1-9h-1zm76 138c0 6 3 5 7 5 1 0 1 0 1-1-4-1-5-4-4-8-2 0-2 0-3 1s-1 2-1 3m41-226c2 1 9 0 11 0 1 0 3-2 3-2-2-1-9 0-11 0-1 0-3 2-3 2m-311 226c0 5 6 4 8 4-1-2-4-2-4-6v-2c-3 0-4 2-4 4m214 637c2 1 4 2 6 2 1-1 2-4 2-5-2-1-3-2-6-2zm-168-22c0 1 1 6 2 6 2 0 4-1 5-1-1-2-1-4-2-6-2 0-3 1-5 1m119 27 2 2c1 1 2 1 2 2 1-1 3-2 4-4 0-1-3-3-4-3s-1 1-2 2l-2 2zm81-23c0 1 5 2 6 2 0-2 1-4 1-6-2 0-3-1-5-1-1 0-2 4-2 5m-193-873c2 0 7-6 8-7 1-2 1-1 1-4-4 3-3 3-6 5-2 2-4 3-4 7zm342 52v1c4 0 8 3 11 3 1 0 2-1 3-1v-1c-4 0-8-3-11-3-1 0-2 1-3 1m-467 0c2-1 2-3 3-5 3-5 3-4 2-9h-1c-1 6-7 8-4 14m201-60c2 0 10-5 11-5 1-1 1-2 2-3-2 0-9 4-11 5-1 1-1 2-2 3m215 35c2 0 6 1 8 1s6 1 7-2c-5 0-11-2-13 0-1 1-1 0-1 1zm-64-37h9c4 0 4 0 6-3h-9c-4 1-4 0-6 3m-169-4c2-1 4-2 7-4 1 0 3-2 3-2l1-3c-6 3-11 5-11 10zm226 48c-6 0-1 3-5 10-1 1-2 2-2 3 1 1 4-3 5-4 2-3 1-5 1-9zm-132-50 11-3c1-1 2-2 2-3l-11 3c-1 1-2 2-2 3m121 102c3 1 8 2 10 2s2-1 3-1c-1-1-3-1-5-2-5-1-6-3-9 1zm-59-28v1c7 1 11 4 14 0-4 0-7-2-11-2-1 0-1 0-2 1zm-146 58c1 0 1 0 1 1-2-1-1 0-1-1m-2 1c0 2 1 1 2 2-2 1-4 2-4 4 2 0 2-1 4-2 2-2 1-1 4-1 0-2 0-5-1-7q-3 0-3 3zm53-1h1v1c-3-1 0 0-1-1m-2 1 2 2c-4 3-4 2-4 4 7-3 3-4 7-3 0-5-1-10-5-3m25-6c0-2 1-2 2-1-1 2-1 1-2 1m-5 2c5-1 1 0 4 0 5 0 6-6 3-5-1 0-1 1-2 1l-1 1c-3 3-1-3-4 3m-7 4c0-2 0-1-1-2v3h-1v-2c-3 2-1 4 0 4l4-1c1-3 1-1 0-4-2 2 1 2-2 3zm-43-4c2-1 2-2 4 0l-2 2c2 0 4-1 5-3-2-1-3-1-6-1-1 2-1 1-1 3zm4 82v2c2 1 2 1 4 1 1 0 1 0 1-1-4 0-3-3-3-5-2 0-2 1-2 3m33-82c2 0 6-2 8-3 1-1 2 0 2-2l-5 2c-4 2-4 1-5 3" class="fil3"/><path d="M1289 489c6-1 12-6 6-4-4 2-6 1-6 4m-31 7c1 0 6-3 8-3 1-1 1 0 2-2-2 0-4 2-5 2-3 1-3 1-4 3zm2 21 2 2c2-1 1-1 2-2-1-1-1-1-3-1-1 1-1 1-1 2zm-94 615c0-1 0-1-1-1zM795 836v-1l-1 1zm613 296v-1zM958 651v-1zm327-107h1zm0 0v1zm-9 45 1-1z" class="fil3"/></g></svg>