<svg xmlns="http://www.w3.org/2000/svg" xmlns:xlink="http://www.w3.org/1999/xlink" width="1200" height="600" viewBox="0 0 9600 4800"><defs><clipPath id="f"><path d="M0 0h12v6H0z"/></clipPath><clipPath id="c"><path d="M0 0v1.5h8V4zm6 0H3v4h-5z"/></clipPath></defs><g fill="#012169" stroke-width=".6" clip-path="url(#f)" transform="scale(800)"><path d="M0 0h12v6H0z"/><path stroke="#fff" d="m0 0 6 3M0 3l6-3"/><path stroke="#c8102e" stroke-width=".4" d="m0 0 6 3M0 3l6-3" clip-path="url(#c)"/><path stroke="#fff" stroke-width="1" d="M3 0v4M0 1.5h7"/><path stroke="#c8102e" d="M3 0v4M0 1.5h7"/><path d="M0 3h6V0h6v6H0z"/></g><g transform="translate(7200 2400)"><g id="t"><path id="s" fill="#fff" d="m0-1992 81 249h261l-211 153 81 249L0-1494l-212 153 81-249-211-153h261z"/><use xlink:href="#s" transform="rotate(24)"/><use xlink:href="#s" transform="rotate(48)"/></g><use xlink:href="#t" transform="rotate(72)"/><use xlink:href="#t" transform="rotate(144)"/><use xlink:href="#t" transform="rotate(216)"/><use xlink:href="#t" transform="rotate(288)"/></g></svg>