<svg xmlns="http://www.w3.org/2000/svg" width="900" height="600" viewBox="0 0 900 600"><path id="green" fill="#005430" stroke-width=".375" d="M0 600h900V0H0z"/><g id="white" fill="#fff" transform="scale(.375)"><g id="shahada"><path d="M1800 635.53c-.168-28.106-11.073-103.815-13.841-129.214-2.761-25.398-5.544-48.44-4.872-53.836.657-5.206 8.67 7.24 12.906 8.246 2.191-.439 1.213-8.3-2.768-15.012-2.695-4.558-11.884-21.603-17.457-31.591-2.622-4.727-3.207-7.47-4.47-8.05-1.257-.58-11.402 19.888-10.292 22.157 2.768 4.16 4.667 6.145 5.098 13.493.439 7.347 4.237 59.805 9.08 99.567 3.644 29.998 11.642 94.625 11.927 134.806.08 13.108-1.373 25.6-3.119 30.821-4.477 8.198-11.475 15.593-37.536 30.841-29.297 17.147-68.382 31.416-85.182 40.965-10.445 5.956-6.982 6.753 2.111 4.146 9.072-2.607 55.98-10.96 78.769-20.59 21.394-9.063 35.28-24.223 45.82-46.34 13.015-27.343 14.009-50.547 13.826-80.409m-90.7-213.5c2.264-.878 21.014-1.844 26.061-.804-3.316 4.741-25.798 15.235-25.893 17.16.614 1.297 15.529-2.397 20.233-4.45 3.075-1.85 5.127-4.714 7.406-7.091 5.376-6.186 11.753-17.66 10.146-19.098-2.608-2.323-28.165-.878-31.533-.398-2.257.324-7.983 10.589-9.035 13.222-1.03 2.634.35 2.337 2.615 1.459"/><path d="M1747.6 588.62c3.908-13.236 4.872-29.295-.446-46.198-5.463-17.403-19.034-28.012-28.822-33.448l-1.746 16.754s13.725 6.821 23.11 23.994c5.946 10.893 8.423 26.297 3.726 43.47-.782 4.261 2.264 1.911 4.178-4.572m-145.2 84.02c3.52-11.92 4.383-26.378-.394-41.6-4.923-15.673-17.143-25.229-25.96-30.104l-1.577 15.08s12.358 6.145 20.81 21.596c5.36 9.798 7.581 23.69 3.367 39.147-.702 3.823 2.038 1.716 3.754-4.119m-504.1-228.13c5.653 10.339 7.998 24.98 3.55 41.288-.745 4.046 2.133 1.824 3.966-4.335 3.696-12.56 4.616-27.823-.438-43.888-5.194-16.539-18.085-26.608-27.384-31.76l-1.643 15.91s13.038 6.476 21.949 22.785M758 449.86c4.748 11.13 5.07 26.155-2.6 41.984-1.49 3.978 2.14 2.093 5.186-3.856 6.223-12.162 9.714-27.384 6.559-44.199-3.236-17.288-16.223-29.072-25.945-35.454l-4.411 15.796s13.724 8.184 21.211 25.729"/><path d="M852.07 698.62c6.033-11.197 8.546-18.733 11.227-31.996 2.344-11.67 2.498-25.149 1.65-38.871 18.056-7.36 39.574-19.577 46.806-20.475-4.945 16.977 6.858 35.298 30.7 32.907 1.825 19.2 3.388 36.062 4.338 46.063 1.943 20.503 1.65 46.34 1.592 50.83-.08 4.512 3.185 3.661 6.537-6.388 4.47-13.452 5.851-48.581 4.23-71.812-.388-5.808-1.045-13.648-1.841-22.582 15.456-7.152 18.027-20.955 23.804-26.837 5.216 18.267 33.921 20.745 42.781 16.835 10.986-4.855 14.586-13.587 17.413-33.853 2.834-20.26-5.42-28.417-8.37-30.625-.293 2.451-7.48 26.263-7.48 26.263s6.815 7.198 7.158 10.737c-5.551 5.024-17.26 5.335-27.091 2.134-9.839-3.201-12.855-9.09-12.271-13.04.57-3.964 4.273-7.57 4.397-12.399.11-4.828-2.206-3.43-6.143.844-3.937 4.282-6.479 8.13-11.928 17.322-4.455 7.516-11.686 16.687-24.44 19.307-2.103-22.07-4.506-45.55-6.113-60.298-.84-7.787-9.233-75.075-9.832-82.604-.518-6.558-1.49-14.29-1.329-17.923.16-2.89 1.972-1.742 4.777 1.283 2.812 3.019 7.728 8.286 8.575 7.874 2.863-1.405-.066-10.15-3.813-17.983-3.74-7.854-16.507-38.838-19.188-40.114-1.38-.648-10 18.423-10.51 22.177 1.336 2.35 4.828 6.044 4.952 16.552.044 2.931 1.928 30.565 4.543 56.692 2.286 23.076 5.317 44.97 5.61 47.515 2.081 17.612 4.609 42.437 7.012 66.842-13.842-2.633-17.523-11.763-17.216-16.97.35-5.875 3.002-12.507 1.73-14.006-2.665-1.6-18.53 7.266-40.654 16.795-6.224 2.674-13.236 5.544-20.635 8.266-1.928-16.633-4.47-32.449-5.493-44.544l-.124-1.344c14.55-.938 26.463-8.286 31.883-15.282 6.771-8.745 11.504-26.742 11.964-40.532.46-13.803-10.678-39.04-13.33-47.062-2.673-8.03-4.054-13.594-4.287-16.37-.241-2.775 6.018 3.215 9.955 4.39 2.666.533 1.746-5.24-1.512-9.205-3.235-3.95-20.736-30.51-21.963-28.646-.753 1.094-7.765 20.63-8.225 23.622 2.761 1.823 5.99 6.848 6.216 11.663.234 4.814 4.09 25.985 8.363 37.75 4.288 11.763 13.418 34.332 13.995 40.538-6.523 4.6-21.372 12.385-36.06 11.92-2.513-20.584-5.698-44.49-7.4-61.42-.657-6.544-.701-13.526-.599-17.173.08-2.89 2.162-2.492 5.025.48 2.878 2.97 7.29 7.293 8.196 6.982 1.972-.655.263-7.212-3.645-14.999s-19.437-40.72-22.161-41.95c-1.38-.628-8.334 17.869-8.772 21.644 1.387 2.336 4.945 5.95 5.295 16.457.278 8.367 4.354 49.372 7.845 85.488-14.535-7.517-19.495-18.26-21.292-36.298-1.256-12.575-1.38-35.738-5.865-55.112-2.527-10.954-7.852-22.083-14.163-27.992-1.505 3.64-8.224 25.986-8.224 25.986 2.19 6.415 9.006 28.019 8.772 46.738-.227 18.72-1.702 37.02-22.68 49.629-20.963 12.615-52.407 7.597-60.172-12.082-7.764-19.692 9.496-69.064 9.27-80.72-.234-11.655-2.316-13.262-7.188-11.338-4.865 1.925-14.82 13.162-23.395 31.443-8.575 18.294-12.388 40.95-17.26 56.354-4.857 15.404-12.636 31.01-24.674 30.146-12.037-.85-18.516-11.865-22.22-27.796-3.71-15.944-1.438-36.94-.43-42.321 2.513-13.48-3.309-10.718-6.873 10.447-2.206 13.053-4.397 33.9 3.367 55.72 7.75 21.819 20.963 29.956 32.54 27.167 11.585-2.775 21.767-29.943 25.36-42.146 3.587-12.182 19.634-66.295 28.72-68.956 1.271 6.098-7.063 25.757-9.729 48.75-2.658 22.995 3.543 53.884 32.73 59.226 29.188 5.348 48.99-13.581 56.17-26.722 7.187-13.162 10.54-26.959 11.35-33.908.935 17.64 12.973 45.185 36.353 53.039l2.41.696c1.44 14.438 3.784 33.286 5.94 53.079a221 221 0 0 1-13.718 3.768c-.585-1.897-1.227-3.755-2.009-5.463-7.136-15.35-18.947-29.498-35.316-28.518-16.719.992-34.95 23.305-34.154 39.6.526 10.96 6.56 19.955 28.5 22.258 10.022 1.06 20.664-.054 31.657-2.451 1.549 4.531 2.528 9.035 2.637 13.141-6.953 8.13-64.489 51.526-107.569 55.7-43.08 4.166-56.22-18.416-56.651-41.086-.322-17.248 10.05-34.461 17.34-46.374 10.43-7.63 18.99-17.173 24.396-24.534a207 207 0 0 0 4.193 2.52c5.15 2.99 7.202 7.461 7.202 7.461.95-1.458 5.375-9.427 3.644-13.323-.796-.96-4.689-3.357-9.371-6.2 4.916-12.25 4.85-24.48-1.52-27.201-7.12-3.032-16.42 5.395-20.43 10.535a13.65 13.65 0 0 0-2.892 8.252c-.029 3.275 1.512 6.233 5.325 8.867a427 427 0 0 0 10.642 7.063c-9.415 9.887-31.663 24.372-45.278 32.881-.504-1.25-2.498.068-5.179 3.228l-3.689 2.276c-10.86 6.645-36.908 21.239-42.028 24.81-5.128 3.58-1.914 2.932 0 2.135 3.616-1.952 8.363-4.315 13.695-6.922 7.553-3.694 16.34-7.874 24.93-12.068a127 127 0 0 0-7.502 14.843c-10.248 24.197-26.813 74.345 9.02 104.518 34.287 28.883 93.217 17.896 142.09-12.122 48.88-30.024 59.434-40.579 67.074-51.492M692.722 579.333c-1.695-1.25-1.929-2.917-.548-4.079 1.76-1.499 4.01-2.917 6.566-3.396 5.42-1.007 7.582 5.22 5.405 14.917-4.12-2.519-8.356-5.166-11.423-7.442m112.104 40.904c-24.885.115-26.032-4.403-25.564-7.294.46-2.876 8.21-10.77 18.041-5.564 4.156 2.208 8.838 6.827 13.17 12.628a85 85 0 0 1-5.647.23m-76.219 130.868c-47.017 12.831-92.88-7.05-95.656-46.414-2.125-30.058 8.838-52.708 15.909-65.471 6.742-3.336 13.11-6.578 18.377-9.482-12.307 19.82-19.51 46.367-14.696 68.855 5.45 25.473 27.61 40.917 65.132 35.933 37.149-4.923 87.38-40.255 101.623-53.579 4.339-4.808 7.202-9.144 11.102-17.977 1.607-3.626 3.864-8.414 4.704-13.823.548-3.525.84-7.294.906-11.13 4.36-1.303 8.743-2.761 13.155-4.328 1.497 16.126 2.6 32.023 2.666 45.772-23.147 27.148-76.205 58.806-123.222 71.644M1551 647.88c-1.592-26.337-5.434-74.007-7.582-98.19-1.899-21.522-5.631-51.02-8.363-76.985-.687-6.537-.76-12.798-.687-16.437.08-2.877 2.959-1.77 5.836 1.188s7.378 6.672 8.225 6.22c2.812-1.459-.555-8.671-4.507-16.43-3.951-7.773-19.619-39.925-22.343-41.147-1.388-.622-8.729 18.638-9.152 22.413 1.402 2.323 4.988 5.923 5.375 16.43.395 10.515 5.705 58.854 9.54 97.948 2.658 27.174 6.091 71.515 8.59 104.95-.125.054 2.359 31.786 2.629 35.352 1.534 20.53.738 46.36.584 50.844-.168 4.504 3.126 3.721 6.662-6.274 3.6-10.204 5.653-32.988 5.93-53.558zm-133.5-92.2c-4.82 1.472-12.388-3.626-11.81-14.317.525-9.657 4.66-18.699 6.252-24.405 2.19-7.874 2.205-15.465.35-11.163-4.178 9.616-11.957 28.208-13.564 40.822-1.614 12.615 2.476 20.746 8.035 23.521 6.924 3.478 11.913-2.039 15.288-10.17 3.243-7.786 2.629-16.876.38-14.735-1.885 2.235-2.586 9.724-4.931 10.447m-69.3 38.86c2.556-6.794 3.155-13.452 1.19-9.799-4.433 8.185-12.738 24-15.17 34.988-2.425 10.987.518 18.423 5.193 21.239 5.829 3.525 10.628-.993 14.258-7.915 3.47-6.625 3.645-14.668 1.512-12.926-1.84 1.837-3.06 8.368-5.164 8.847-4.375.966-10.613-4.032-9.262-13.405 1.227-8.441 5.588-16.12 7.443-21.029m-201.8 143.32c4.273-6.935 6.398-14.127 3.433-10.494-6.618 8.117-19.144 23.872-24.199 35.426-5.04 11.555-3.433 20.233 1.06 24.183 5.602 4.93 11.847.878 17.303-6.003 5.237-6.598 7.195-15.35 4.455-13.858-2.403 1.682-5.149 8.59-7.567 8.719-4.974.243-10.715-6.382-7.194-16.363 3.184-9.009 9.62-16.586 12.709-21.61m353.8-202.4c-4.901 1.23-12.147-4.261-10.934-14.91 1.103-9.61 5.785-18.423 7.706-24.028 2.673-7.76 3.133-15.33 1.022-11.143-4.733 9.4-13.615 27.553-15.989 40.073-2.374 12.513 1.213 20.84 6.603 23.9 6.72 3.808 12.008-1.433 15.88-9.388 3.703-7.604 3.644-16.707 1.256-14.68-2.009 2.147-3.156 9.582-5.544 10.176m-1.5 130.65c6.705 3.809 12.023-1.432 15.88-9.387 3.695-7.604 3.644-16.707 1.27-14.681-2.023 2.134-3.17 9.583-5.558 10.177-4.901 1.222-12.162-4.261-10.935-14.911 1.103-9.61 5.778-18.43 7.706-24.028 2.666-7.759 3.127-15.343 1.023-11.142-4.748 9.4-13.615 27.553-15.989 40.06-2.374 12.526 1.213 20.853 6.603 23.912m85.7-166.89c3.228-9.387 3.784-18.55 1.227-13.48-5.741 11.373-16.478 33.334-19.356 48.495-2.863 15.147 1.483 25.216 8.005 28.923 8.115 4.606 14.536-1.735 19.218-11.352 4.463-9.204 4.397-20.232 1.519-17.767-2.432 2.586-3.827 11.582-6.72 12.304-5.916 1.486-14.703-5.152-13.22-18.037 1.336-11.63 6.997-22.292 9.327-29.086"/><path d="M899.52 661.58c5.28-11.44 7.195-22.893 3.309-16.795-8.7 13.648-25.083 40.073-30.678 58.793-5.602 18.726-1.453 31.88 6.253 37.277 9.612 6.699 18.516-.568 25.652-12.122 6.83-11.082 8.188-24.96 4.251-22.184-3.397 2.971-6.333 14.14-10.058 14.728-7.655 1.202-17.822-8.13-14.272-24.169 3.214-14.472 11.73-27.249 15.543-35.528M1639 775c4.047-3.316 39.238-22.272 45.717-26.121 0 0 6.625-10.805 4.638-11.953-1.994-1.148-14.842 10.535-22.833 10.859-7.998.324-18.947-5.551-19.297-10.366 1.037-3.633 10.656-9.09 14.133-9.313 3.477-.202 2.915 7.713 4.076 8.678 1.161.952 5.785-5.463 6.37-8.137.569-2.668.094-13.837-6.268-12.237-10.072 2.546-25.265 21.225-26.996 27.1-1.746 5.889 7.64 11.015 14.491 13.804-.584.216-5.697 2.674-8.933 5.875 0 0-3.476 3.896-5.098 11.811m-120 23.48c4.047-3.316 39.238-22.258 45.717-26.121 0 0 6.64-10.805 4.638-11.953-1.994-1.148-14.842 10.535-22.833 10.859-7.998.324-18.947-5.551-19.297-10.366 1.037-3.633 10.656-9.09 14.133-9.299 3.477-.216 2.915 7.692 4.076 8.65 1.161.966 5.785-5.45 6.37-8.123.569-2.668.08-13.837-6.268-12.237-10.072 2.56-25.265 21.225-26.996 27.114-1.746 5.875 7.64 11 14.477 13.79-.57.216-5.683 2.667-8.919 5.875 0 0-3.476 3.896-5.098 11.811m-270.3-339.76c3.155 3.667 23.826 29.93 40.02 46.441 16.186 16.525 43.934 43.267 64.32 61.595a787 787 0 0 1 12.388 11.406c5.143 39.479 11.088 89.715 13.586 110.488 2.462 20.455 2.827 46.285 2.878 50.783.044 4.504 3.287 3.586 6.37-6.524 4.134-13.567 4.608-48.696 2.417-71.9-1.359-14.33-4.565-41.174-7.67-65.924 12.038 11.893 23.41 23.69 31.073 32.523 14.09 16.214 25.944 28.444 33.168 45.874 5.113 12.331 4.594 22.144 6.69 24.082 1.812 1.674 3.814-13.081 1.578-27.39-3.622-23.238-8.59-33.091-38.42-66.27-11.38-12.681-24.776-25.938-37.872-38.33-.504-3.822-.964-7.36-1.38-10.5-1.038-7.76-11.147-74.845-11.943-82.362-.68-6.543-1.87-14.249-1.775-17.889.073-2.897 1.914-1.769 4.806 1.189 2.878 2.951 7.918 8.117 8.773 7.665 2.82-1.459-.322-10.123-4.273-17.896-3.937-7.76-17.501-38.459-20.226-39.674-1.38-.622-9.51 18.631-9.926 22.4 1.41 2.323 4.989 5.942 5.376 16.437.11 2.93 2.71 30.524 5.975 56.577 2.892 23.021 6.471 44.854 6.844 47.38l.014.196c-13.505-12.318-25.404-22.778-32.62-29.35-16.873-15.336-54.139-51.728-55.636-57.178-.336-1.722 2.556-.662 7.874.19 5.34.857 10.087 2.674 9.232.053-.387-1.235-2.432-4.288-7.523-7.435-5.098-3.153-18.158-11.325-27.873-17.105-9.736-5.774-14.557-10.616-16.566-9.232-.993.682-.11 20.462.475 22.927 2.432.21 6.705 3.073 9.846 6.753"/><path d="M1275.3 423.15c3.995-.878 22.928-.398 29.801 1.047-2.878 1.999-22.248 11.784-26.076 14.114-3.805 2.336-4.77 3.687-2.856 3.457 5.551-1.54 18.063-3.457 24.06-6.584 5.654-2.647 15.288-15.56 19.035-20.374 3.725-4.815 3.725-7.22 2.776-8.509-3.828-2.08-28.501-4.167-40.4-1.216-3.294 2.236-9.736 14.141-10.686 16.62-.95 2.492.35 2.323 4.346 1.445m105.3-1.55c3.228-.71 18.487-.324 24.016.837-2.315 1.614-17.917 9.502-21 11.393-3.089 1.87-3.856 2.964-2.315 2.775 4.478-1.229 14.565-2.775 19.393-5.308 4.55-2.134 12.315-12.54 15.331-16.41 3.002-3.89 3.002-5.82 2.235-6.854-3.067-1.695-22.957-3.37-32.547-.986-2.659 1.796-7.837 11.393-8.604 13.391-.782 2 .277 1.871 3.491 1.162m85.6-1.1c3.214-.71 18.472-.324 24.002.837-2.301 1.614-17.91 9.502-21 11.38-3.075 1.883-3.842 2.977-2.3 2.788 4.477-1.229 15.345-2.789 20.173-5.308 4.558-2.134 9.956-12.54 12.973-16.423 3.016-3.876 3.016-5.821 2.235-6.841-3.068-1.695-21.394-3.37-30.97-1-2.659 1.81-7.852 11.407-8.619 13.405s.278 1.871 3.506 1.162m-53.4 41.69c-5.07 7.982 1.286 14.425 3.601 20.874-3.126 2.856-7.932.25-9.54-2.256-3.418-5.139-2.27-15.613-6.296-17.227-1.03 2.83-1.701 5.97-1.701 5.97s3.06 7.165 2.293 11.906c-.49 2.863-3.017 6.206-6.355 6.273-8.896.216-4.514-12.952-7.947-20.414-.7 1.823-1.205 3.781-2.023 5.49.628 1.945.972 4.673 1.074 6.246.204 3.127-.044 6.497.49 9.164.737 3.775 2.833 6.28 6.033 6.524 6.646.527 9.678-4.856 10.678-9.272 1.147 4.504 9.934 9.468 14.258 3.937 5.727-7.293 1.147-13.54-1.79-20.401-2.118-5.072-1.504-8.401-2.775-6.814m-249.7-21.17c.46 3.282 2.147 5.524 4.901 5.862 5.683.722 8.56-3.796 9.634-7.55.753 3.923 8.1 8.542 12.096 3.964 5.281-6.058 1.622-11.622-.584-17.653-1.578-4.47-.899-7.307-2.067-5.99-4.748 6.659.43 12.487 2.118 18.139-2.834 2.323-6.844-.115-8.115-2.323-2.703-4.572-1.227-13.547-4.602-15.107-1.022 2.404-1.745 5.072-1.745 5.072s2.286 6.3 1.395 10.346c-.548 2.451-2.878 5.226-5.77 5.152-7.663-.169-3.266-11.338-5.88-17.896-.68 1.533-1.213 3.215-2.01 4.633.461 1.715.629 4.065.629 5.436.058 2.702-.321 5.578 0 7.915m181.3 309.28c.855-1.357 2.74-5.085 2.264-7.631s-3.593-13.169-9.649-15.83c-6.018-2.66-10.576 2.918-13.461 10.677l-2.002-.047c-.474 1.148-1.073 2.863-1.548 5.963-.672 4.477-1.943 7.361-9.62 14.33-6.457 5.835-27.376 19.848-40.932 26.432-13.572 6.598-23.337 12.29-26.938 14.02-3.587 1.701-2.542 2.336 1.044 1.262 3.58-1.067 21.591-6.868 28.771-9.826 7.166-2.978 15.93-7.874 26.493-14.728 11.745-7.618 18.764-15.235 21.124-21.988 1.68-4.815 2.11-6.74 2.11-6.74s4.412 2.607 11.899 4.315c7.458 1.716 9.576 1.162 10.445-.209m-10.124-15.093c3.324 1.263 5.347 4.882 5.946 7.077-3.813.088-10.832-1.85-13.82-3.2 1.797-3.479 4.923-4.985 7.874-3.877"/><path d="M1264.9 757.77c-10.416-1.445-36.66-5.436-43.08-20.671 5.39-7.86 30.217-17.815 61.319-27.127 31.1-9.293 63.597-21.354 72.333-27.175 1.914-.648 5.617-.452 5.617-.452 1.563-4.505 9.371-20.32 9.86-23.63-8.691.494-62.268 4.43-86.065 5.707-23.811 1.283-69.667.972-84.948.804 9.372-6.74 31.613-19.895 63.4-31.119a684 684 0 0 1 11.49-3.964c2.645 4.714 4.61 9.373 5.018 13.432 2.024-2.08 3.543-8.975 3.032-16.052 18.53-5.916 28.077-7.874 32.197-8.988 2.6-3.37 7.209-16.998 7.895-26.905-2.768-5.044-11.438-11.325-19.151-16.72-10.628-7.422-22.088-13.892-33.527-11.062-15.638 3.836-18.771 32.563-15.126 38.655 1.16 1.924 3.915 5.335 7.165 9.542-11.424 4.49-23.374 9.772-33.906 15.323-23.461 12.358-49.654 25.878-57.294 38.877l-2.192 1.067c-.613 1.23-5.449 21.347-6.15 23.515 4.88-.17 41.313-.102 66.688-.892 25.36-.81 47.535-1.614 56.22-1.614-12.863 3.046-46.572 15.573-56.264 22.94-9.693 7.388-15.785 18.619-15.945 37.872-9.036-3.539-25.828-11.622-40.137-30.977-15.952-21.57-12.65-43.753-19.035-72.866-9.276-42.247-29.085-77.917-41.422-88.83-4.156 14.91-4.689 26.148-4.689 26.148s15.456 34.17 23.278 55.983c7.823 21.82 14.507 43.315 14.178 48.13-6.442 14.127-44.578 43.72-76.358 61.04-30.137 16.424-56.688 18.194-66.096 6.497-1.848-2.282-3.104-4.983-3.813-8.043 4.09-1.91 8.196-3.835 12.403-5.76 27.098-12.345 75.226-38.33 86.504-51.965 12.168-16.525 12-39.79 4.864-53.106-7.107-13.31-18.253-28.721-19.122-34.171-.68-2.573 7.238 1.047 11.913 1.29 2.264-.17 1.132-3.215-3.725-8.03-3.886-3.835-18.91-16.281-24.652-21.137-1.439-1.236-2.513-.736-2.805.567-1.117 4.97-3.404 15.614-4.287 20.867l.613 2.648c1.651.979 3.55 2.08 4.47 4.828 1.3 3.897 5.851 14.77 13.309 28.491 7.472 13.716 18.267 28.856 19.327 36.5-8.78 11.198-53.05 35.043-96.175 54.694 2.666-8.265 6.873-17.612 12.454-27.991 1.585-1.756 3.031-3.924 4.375-6.368 4.302-7.861 4.719-17.47 2.11-15.438-2.234 2.154-3.841 9.954-6.398 10.48-5.237 1.074-12.585-5.037-10.737-16.213 1.673-10.083 7.063-19.186 9.393-25.014 3.229-8.063 4.113-16.032 1.666-11.696-5.5 9.684-15.821 28.444-18.991 41.552-3.155 13.087.197 22.035 5.726 25.5 2.068 1.316 4.047 1.728 5.931 1.471-3.783 7.2-8.458 16.032-11.869 26.567-17.34 7.76-34.213 14.695-48.178 19.692-50.202 17.97-85.978 28.559-111.002 36.42l-.98.439c1.842-5.95 1.593-11.028-.379-9.502-2.235 2.168-3.835 9.968-6.391 10.48-5.237 1.075-12.585-5.03-10.745-16.213 1.68-10.083 7.07-19.172 9.4-25.007 3.215-8.057 4.106-16.039 1.666-11.697-5.507 9.684-15.82 28.445-18.99 41.546-3.163 13.094.19 22.042 5.711 25.513 6.88 4.322 12.746-.98 17.245-9.178l1.578-3.37c1.563 0 4.2-.364 8.137-1.242 11.468-2.58 40.137-6.74 79.557-11.879 29.188-3.795 49.34-11.81 68.82-20.732a80 80 0 0 0-.014 6.611c1.06 26.75 18.59 34.3 42.562 29.295 23.125-4.855 55.373-26.06 74.7-40.363 20.152-14.91 31.78-28.235 34.746-32.88 5.376-11.393 6.851-23.98 7.216-29.917 1.76 16.356 3.185 38.992 18.655 58.408 14.243 17.868 43.43 42.8 98.33 43.483.182-6.53-2.433-26.918-2.433-26.918m-3.63-165.748c7.86-8.82 24.63-3.052 37.215 8.13-6.45 1.513-15.208 4.208-24.871 7.659-5.741-6.922-12.147-13.594-12.344-15.79M952.63 471.1c3.564-1.627 14.47-6.53 26.222-13.378 11.73-6.8 22.753-15.039 28.143-20.516 2.067-2.1 3.908-3.741 5.084-5.693 3.52 1.459 5.946 2.972 7.457 3.566 2.272.878 5.303 2.14 7.275-4.329 1.965-6.462-.642-10.636-4.484-15.62-3.25-4.18-8.407-10.46-12.593-12.02-3.55-1.33-5.237 6.598-4.696 6.402h2.374l.46.223c-4.887 2.464-8.67 10.136-9.05 12.83-.387 2.931.168 5.092 7.18 6.895l2.82.831c-5.851 6.929-16.757 14.094-24.185 19.172-10.54 7.226-25.499 16.255-29.757 18.861-4.259 2.594-3.9 3.41-2.25 2.776m63.342-50.905.38-3.464c4.93 5.618 8.59 12.304 8.224 13.25-2.264.182-5.083-1.912-10.014-4.019.548-1.674 1.008-3.525 1.41-5.767m-14.156.007c-.029-1.054 1.87-3.984 5.888-5.585 4.01-1.614 5.785 2.89 6.135 8.374l-1.19 2.195-3.616-1.25c-3.827-1.12-6.413-1.755-7.217-3.734"/><path d="M1215.5 576.87c5.785-3.822 21.686-15.303 30.707-22.825 6.274-5.227 13.644-12.926 18.647-19.436a239 239 0 0 0 8.736 5.403c5.142 3.005 7.21 7.462 7.21 7.462.95-1.459 5.375-9.441 3.644-13.324-1.037-1.27-7.362-4.964-13.827-8.921 3.28-7.36 7.794-20.09 1.33-24.547-5.53-3.782-14.857 2.478-19.174 10.602-3.564 6.726-4.024 12.432 2.776 17.105a320 320 0 0 0 5.544 3.742c-6.859 7.502-19.495 18.605-28.487 26.161-11.168 9.347-21.73 18.51-23.57 20.698l-.533.851c-2.44-6.793-1.775-10.987-3.587-8.731-7.823 12.27 1.98 22.21 5.544 32.138-4.82 4.376-12.205.358-14.681-3.471-5.274-7.929-3.514-24.028-9.686-26.52-1.592 4.35-2.63 9.191-2.63 9.191s4.697 11.028 3.507 18.308c-.738 4.403-4.638 9.555-9.759 9.643-13.702.351-6.946-19.922-12.234-31.402-1.074 2.816-1.84 5.828-3.126 8.435.971 3.018 1.504 7.205 1.643 9.63.35 4.815-.044 9.98.767 14.114 1.132 5.807 4.36 9.67 9.291 10.028 10.219.83 14.886-7.476 16.434-14.249 1.76 6.929 15.295 14.546 21.95 6.05 8.816-11.23 1.76-20.846-2.747-31.408l-.533-1.37c.628.222 2.987-.811 6.844-3.357m39.969-63.236c3.389-6.287 10.525-6.82 12.665-3.525 1.702 2.62 1.84 7.732-.716 13.128-6.296-3.95-11.913-7.82-11.95-9.603"/><path d="M992.43 536.89c-12.037-.85-18.516-11.879-22.22-27.81-3.71-15.93-1.438-36.939-.43-42.32 1.008-5.376-4.668-2.6-6.874 10.453-2.19 13.04-4.397 33.894 3.368 55.726 7.75 21.806 20.963 29.944 32.54 27.155 11.577-2.776 21.766-29.944 25.36-42.133 3.586-12.196 19.634-61.933 28.72-64.607 1.271 6.098-7.063 21.394-9.729 44.388-2.651 22.995 1.965 53.154 31.152 58.502 29.188 5.356 48.99-13.58 56.17-26.742 7.187-13.141 10.54-26.958 11.35-33.9.935 17.645 12.973 45.198 36.353 53.052 22.592 7.59 39.852.641 47.478-9.198 6.77-8.738 12.285-26.735 12.76-40.539.46-13.79-11.46-39.026-14.126-47.062-2.674-8.016-4.054-13.58-4.288-16.356-.226-2.776 6.034 3.214 9.97 4.39 2.667.533 1.732-5.24-1.511-9.205-3.236-3.95-20.752-30.51-21.979-28.66-.752 1.107-7.764 20.644-8.224 23.636 2.775 1.823 5.99 6.847 6.23 11.662.22 4.815 4.857 25.986 9.145 37.75s12.622 34.333 13.206 40.539c-8.334 5.875-27.106 13.35-44.935 5.774-17.83-7.604-23.52-18.618-25.485-38.297-1.256-12.574-1.38-35.737-5.865-55.105-2.527-10.947-7.852-22.076-14.178-27.985-1.49 3.626-8.21 25.986-8.21 25.986 2.192 6.415 9.007 28.018 8.788 46.738-.242 18.706-1.717 37.014-22.695 49.629-20.963 12.614-50.83 7.59-58.594-12.095-7.764-19.679 9.496-63.952 9.27-75.608-.235-11.656-2.33-13.27-7.188-11.338-4.865 1.924-14.835 13.161-23.396 31.442-8.575 18.294-12.38 36.575-17.26 51.979-4.857 15.403-12.636 31.01-24.673 30.159m-349.51-68.23c14.813-1.074 27.332-12.304 30.568-15.289 3.243-3.005 4.989-7.482 2.666-5.78-17.136 15.295-40.063 15.727-41.349 13.154.584-2.566 6.618-6.74 15.42-12.614 5.346-3.573 10.108-6.922 13.673-11.67l.971.169c6.523 1.432 14.053 4.282 16.354 1.999 3.747-3.694 4.244-9.745.183-16.268-3.433-5.538-11.439-10.69-18.392-14.411-6.94-3.701-8.283 2.208-9.174 4.315-.855 1.965-.504 3.64.964 3.68-2.235 3.046-3.827 6.97-4.412 10.211-.38 2.093-.073 3.809.782 5.22.248.399 1.534 1.972 3.966 2.904l3.017.939c-5.194 4.794-11.176 8.55-14.317 10.447-5.668 3.424-12.388 9.414-14.47 15.606-2.088 6.213-1.278 8.462 13.55 7.388m26.186-43.693.57-3.16v-2.026c4.696 3.417 12.205 9.887 11.744 13.763-2.972-.675-8.64-1.87-14.024-3.255.687-1.614 1.25-3.383 1.71-5.322m-13.922.986c-3.455-2.755-.088-5.503 2.973-7.273 3.951-2.282 6.267-.398 8.29 5.592-.709 1.715-1.702 3.383-2.87 4.984-3.076-.953-7.407-2.479-8.393-3.303M687.36 635.95c-4.258 3.694-5.91 15.714-5.04 16.437.862.723 14.17 5.213 16.252 6.186l.95-3.62c6.34 5.693 13.366 34.097 14.93 34.178 1.562.074 3.827-3.215 5.31-10.758 1.365-6.996 2.731-17.464 4.156-25.986 1.329-7.8 3.396-12.264 8.085-13.155 4.697-.878 8.174 5.14 9.386 9.231 0 0 3.294-7.867 3.996-12.756-.782-2.573-8.086-12.27-14.076-9.063-5.996 3.215-9.75 16.822-10.963 25.331-1.22 8.496-2.155 19.03-3.63 20.719-1.549-7.253-6.508-20.233-12.498-27.526-6.734-8.171-14.608-11.17-16.858-9.218m-56.77-14.52c5.558-1.526 18.07-3.444 24.06-6.57 5.646-2.648 15.28-15.56 19.02-20.375 3.733-4.815 3.74-7.232 2.79-8.509-3.82-2.093-28.5-4.166-40.406-1.215-3.287 2.221-9.722 14.127-10.672 16.619-.964 2.478.35 2.323 4.339 1.445 3.995-.891 22.935-.412 29.786 1.033-2.856 2.013-22.226 11.798-26.054 14.128-3.813 2.323-4.777 3.687-2.863 3.444m1147.51 68.93c-.57-14.431-7.64-36.588-34.52-70.583-9.276-11.737-22.329-27.013-36.097-42.66-.38-5.335-.76-10.21-1.103-14.397-1.804-21.536-7.918-65.472-10.547-91.444-.643-6.55-.694-13.52-.6-17.16.096-2.89 2.178-2.505 5.04.466 2.864 2.965 7.276 7.294 8.196 6.996 1.958-.675.256-7.232-3.652-15.005-3.9-7.786-18.648-39.276-21.358-40.498-1.395-.622-8.348 17.868-8.78 21.65 1.381 2.323 4.946 5.936 5.29 16.45.364 10.509 6.704 72.57 10.35 111.677l.196 2.181c-20.583-22.98-39.968-43.936-47.944-52.431-1.38-1.472-2.9-3.147-4.536-4.943-1.3-10.46-2.498-20.428-3.324-28.66-.672-6.537-.716-13.52-.599-17.16.066-2.884 2.162-2.492 5.026.48 2.877 2.964 7.275 7.293 8.195 6.982 1.957-.662.256-7.219-3.66-15.005-3.893-7.787-19.268-39.999-21.992-41.221-1.38-.622-8.656 19.34-9.087 23.095 1.395 2.337 4.952 5.95 5.303 16.464.139 4.464 1.3 17.997 2.849 35.076-13.645-16.214-27.004-33.191-27.954-36.642-.336-1.702 2.55-.655 7.889.209 5.317.85 10.306 2.451 9.452-.182-.402-1.223-2.433-4.275-7.524-7.435-5.098-3.154-18.158-11.325-27.873-17.093-9.736-5.773-14.557-10.629-16.565-9.245-.994.683-.11 20.476.46 22.927 2.447.223 6.968 2.04 9.846 5.889 2.907 3.85 21.518 29.943 36.236 47.589a2603 2603 0 0 0 18.633 22.042c1.52 16.255 3.112 33.05 4.426 47.083 2.988 32.01 13.725 116.43 13.827 143.868-7.925 7.435-24.133 17.808-40.808 18.024-16.676.21-25.82-4.18-32.54-16.579-2.075-3.843-4.003-7.705-5.917-11.203-4.543-8.313-14.682-12.98-24.455-10.69l-1.49.398-2.658 1.276c-6.618 3.465-13.462 9.272-20.153 18.28-11.57 15.627-18.961 32.578-27.522 47.259-8.918 15.289-15.762 25.547-31.408 23.096-11.015-1.73-19.378-11.177-24.535-22.799 14.485-10.021 25.003-23.095 32.694-41.214 10.014-23.548 13.586-50.095 12.695-79.943-.855-28.093-13.66-94.186-17.041-119.517-3.375-25.344-8.225-46.144-7.662-51.553.526-5.22 8.838 7.07 13.096 7.99 2.177-.487 1.008-8.327-3.126-14.952-2.805-4.505-11.687-24.993-17.5-34.873-2.733-4.673-3.39-7.381-4.66-7.935-1.257-.574-10.935 20.097-9.767 22.346 2.864 4.092 4.821 6.044 5.42 13.378.614 7.334 7.246 61.17 13.045 100.817 4.368 29.916 14.017 84.258 15.259 124.426.409 13.107-1.461 22.515-3.083 27.768-4.163 8.05-10.949 16.991-34.79 33.962-3.68-23.98.322-43.463-3.17-45.266-3.936.425-4.565 11.602-5.01 25.391-.22 6.369.058 15.188 1.256 24.663-29.282 19.57-67.965 37.392-86.13 46.907-10.658 5.591-6.816 6.895 2.205 4.106 9.02-2.803 58.594-15.803 85.057-29.72l2.849-1.581c1.344 4.666 2.973 9.184 4.974 13.35 8.904 18.504 21.628 29.492 35.41 28.418 11.593-.891 20-13.297 27.333-28.093 7.414-14.978 19.94-43.422 32.226-54.004 4.719-4.08 9.598-7.307 14.346-9.245 0 0 8.392-2.803 16.113 2.242 2.768 1.823 4.835 4.416 6.143 7.32 3.046 6.665 6.647 15.147 14.01 22.251 12.971 12.494 33.832 9.914 49.478 2.648 15.623-7.273 23.6-18.619 27.076-32.098 5.931-23.062 4.982-46.69 3.85-67.68-1.308-23.953-5.135-48.433-7.312-74.371-.7-8.34-2.067-19.942-3.637-32.523 15.236 17.585 31.057 35.433 40.655 45.191 3.309 3.37 6.8 7.111 10.387 11.062 2.863 39.263 5.616 88.391 7.07 109.009 1.439 20.543.511 46.366.343 50.857-.175 4.491 2.323 3.721 5.91-6.246 4.806-13.378 7.822-48.46 6.77-71.725-.628-13.824-2.008-39.026-3.498-62.865 11.825 14.053 23.052 28.242 30.356 37.818 12.987 17.004 24.915 37.223 29.085 49.838 4.164 12.628 4.624 16.369 5.435 18.618s4.397-6.963 3.827-21.394"/></g><path id="sword" d="M1558.8 1170.7c-1.173-3.355-4.765-5.817-9.06-5.817s-7.881 2.462-9.062 5.817H1500c-.41-4.513-.01-9.048 1.269-13.465l83.98-.051 2.34 3.941c2.11 3.554 4.779 6.762 7.872 9.576zm55.596-39.026h-100.92c7.756-5.597 11.824-13.766 10.732-22.029-.696-5.209-5.857-9.099-12.147-9.626h-3.16c-7.653.747-13.203 6.263-12.396 12.322l.308 2.33.374 3.582c.41 4.498.015 9.018-1.253 13.42h-745.97c11.077 16.118 31.273 26 53.082 25.986l680.71-.418c-7.786 5.604-11.868 13.788-10.77 22.066.807 6.058 7.654 10.374 15.308 9.626 7.645-.747 13.195-6.264 12.396-12.33l-.308-2.322h40.004c.703 3.905 4.603 6.901 9.354 6.901s8.65-2.996 9.361-6.901h40.693v-.095c8.496 6.03 19.294 9.494 30.716 9.494 10.747 0 19.456-7.465 19.456-16.68v-4.821c0-16.842-15.922-30.506-35.569-30.506"/></g></svg>